<?xml version="1.0" standalone="no"?>
<!DOCTYPE svg PUBLIC "-//W3C//DTD SVG 1.1//EN" "http://www.w3.org/Graphics/SVG/1.1/DTD/svg11.dtd" >
<svg xmlns="http://www.w3.org/2000/svg">
<metadata>
Created by FontPrep 20130207 at Wed Aug  9 15:14:31 2017
 By Francisco Carvalho
Copyright (c) 2017 by Octotype. All rights reserved.
</metadata>
<defs>
<font id="0f99a5f24c0985a55df0d4b9f6c44abb" horiz-adv-x='1024' >
  <font-face 
    font-family="Calypsoka"
    font-weight="400"
    font-stretch="normal"
    units-per-em="2048"
    panose-1="0 0 0 0 0 0 0 0 0 0"
    ascent="1536"
    descent="-512"
    x-height="677"
    cap-height="1153"
    bbox="-577.714 -989 2404 1421"
    underline-thickness="102"
    underline-position="-102"
    unicode-range="U+000D-007A"
  />
<missing-glyph 
 />
    <glyph glyph-name=".notdef" 
 />
    <glyph glyph-name=".null" horiz-adv-x="0" 
 />
    <glyph glyph-name="nonmarkingreturn" unicode="&#xd;" 
 />
    <glyph glyph-name="NULL" horiz-adv-x="0" 
 />
    <glyph glyph-name="NULL" horiz-adv-x="0" 
 />
    <glyph glyph-name="space" unicode=" " 
 />
    <glyph glyph-name="zero" unicode="0" horiz-adv-x="948" 
d="M811 469q10 25 10 26l5 14l9 32l9 53q2 24 -2 18t-6 -26q-5 -13 -7 -26t-4 -22.5t-5 -22.5t-7 -27.5t-2 -18.5zM874 686l-14 -82q-14 -82 -18 -102.5t-19 -50.5t-18 -56l6 6q4 8 10 15q4 12 8 19t6.5 17t7.5 26t9 40.5t10 44.5t9 39t7 35q4 17 3 33q-7 58 -7 16zM666 364
q88 201 106 408l-2 -2q0 -28 -16 -18q-12 6 -12.5 2t-3.5 3t-8 8t-12.5 3t-4.5 11q4 9 13.5 72.5t3.5 161t-54 130.5q-57 28 -130 -49q-73 -78 -153 -265t-119 -475q-11 -108 12 -179t58 -99q150 -108 322 288zM145 460.5q0 14.5 -4 16.5v-22q-2 -4 -2 -15v-12l-2 -14
q0 -25 5 -55.5t8.5 -23.5t-0.5 25t-4 52q-1 34 -1 48.5zM135 296q0 3 -2 7v16q-4 39 -9 79t0 70q9 52 3 81q-2 -2 -2 -3t-4 -10t-5 -29t-3 -38l4 -96v-19l2 -18v-8q9 -50 18 -66q8 -16 6 -6t-3 17.5t-3 13.5t-2 9zM426 -108v36q-2 12 -20.5 18.5t-32.5 12.5q-213 0 -269 303
q-25 137 -12 309q44 311 180 516q54 89 121 144q95 83 195 78q72 -12 109.5 -34t42.5 -38t14.5 -18t28 -6.5t26.5 -22.5q19 -42 27 -131t-13 -164q17 -12 21 -8t9 -9.5t9 -18.5t5 -3t8 -5t16.5 -13.5t17.5 -13.5t10.5 -41.5t4.5 -61.5q-25 -413 -158 -550.5t-223 -174.5
q-4 -6 -7.5 -13.5t-19.5 -18.5t-16 -24.5t-6.5 -29.5t-8.5 -27.5t-21 -13.5t-28.5 7t-9.5 16zM469 1235q0 21 -23 14q-114 -61 -196 -229q-20 -31 -49 -100q11 23 51.5 53.5t65 42.5t47.5 15t82 75.5t59 77.5v37q0 8 -2 8l-18 -2q-17 -2 -17 8z" />
    <glyph glyph-name="one" unicode="1" horiz-adv-x="565" 
d="M356.5 873q13.5 15 17.5 9q3 -7 22.5 5t23.5 19t9 29.5t8 49.5t3 48.5t-8 25.5q-16 6 -27.5 11.5t-10.5 15.5t-6 30t-17 18.5t-30 -123.5t-34 -159q6 6 21 6t28.5 15zM330 59q16 72 16 152q15 120 25 145l1 36q1 36 -3 20q-4 -18 -7.5 -37t-10.5 -51t-8 -83t-9 -85
t-8 -43v-13q-2 -20 4 -41zM311 167q0 -20 2 -22q2 10 2 11l7 48q8 46 10 54v14q0 14 3 38t-4 9t-7 -23l-9 -89q-4 -20 -4 -40zM229 -12q0 6 -6 10t-14 7t-17.5 5t-14.5 6t-7 12.5t-4 15.5t0 15v4q-21 81 8.5 200t43.5 215t51 243t53 235t22 114t10 54q-123 -123 -186 -233
q-31 -31 -43 -17.5t-12 22.5t-14.5 2t-27.5 2t-29.5 23.5t3.5 62.5t112 153q93 105 214 184q0 8 -2 12q29 66 39 45q8 -18 19 -14t22 -12q65 -116 76.5 -160.5t5 -89.5t-18.5 -125q-21 -138 -70.5 -420.5t-62.5 -476.5h2q-4 0 -4 -23q-14 -64 -22 -49t-16 1.5t-9 -6.5
q-2 7 -3 8t-1 3q-19 -11 -19 -20.5t-6 -18t-7 -17.5t-6 -24.5t-34 -15.5q-30 0 -27.5 31t2.5 37z" />
    <glyph glyph-name="two" unicode="2" horiz-adv-x="851" 
d="M575 1143q44 -99 39 -213q5 15 19 30t26 9t27.5 15.5t17.5 31.5q4 16 -17 55.5t-46 61.5q-61 37 -69.5 32.5t3.5 -22.5zM424 141q18 0 36.5 2t50.5 0t79 6.5t95 5.5t77 9q-25 8 -99 0t-102 -6l-84 -2q-24 0 -42.5 -7.5t-10.5 -7.5zM608 137q-31 0 -66.5 -5t-27.5 -8
t26 -1t41 3t44.5 3t38 3t18.5 5h-74zM323.5 893q-4.5 0 -11.5 3.5t-19 -2.5q2 3 -12 5q-13 0 -5 25q0 117 71 221.5t127 142.5q22 15 48.5 5t45.5 4q31 24 100 -1q64 -42 100 -118q4 -12 20.5 -56.5t16.5 -79.5l-2 -151q-17 -116 -49 -176q-2 -6 -11 -19l-43 -55
q-66 -93 -368 -475q248 18 420 37q30 0 42.5 -5t6 -10t4.5 -13.5t1 -12.5q-11 -4 -7 -7t0 -15t-9.5 -30t-15.5 -45.5t-39 -37.5q-11 -3 -21 -7t-24 -12t-31 -9q-16 -1 -18 -11.5t-16 -23.5t-28.5 -8t-17.5 15t-17 19q-13 8 -23 8h-332q-40 0 -64 12q-76 49 -72 104.5
t27 90.5q71 93 251 301t186 216l32 40q13 12 25 52q30 97 24 130l-34 162q-12 42 -34 51q-23 8 -38 4q-76 -42 -127 -147t-53 -113t-6.5 -8z" />
    <glyph glyph-name="three" unicode="3" horiz-adv-x="763" 
d="M666 381q2 5 4 26t2 44.5t-4 35.5v5q-2 4 -2 8q-2 2 -4 0v-21q0 -6 2 -10v-33q-2 -10 -2 -12l-7 -66v-20q4 10 4 17.5t7 21.5v4zM682 322l4 34q4 35 6 43v13l2 14v29q2 27 -8 86q-4 8 -9 19t-11 22l-13 12h-2l2 -2v-4q15 -24 19 -43l4 -8l5 -44q5 -44 5 -67v-25
q-2 -4 -2 -10t-2 -12v-12q-2 -2 -2 -9.5t-4 -11.5l-2 -12q-12 -18 -12 -27t-4 -21t-5 -30q17 17 17 20l2 14q2 12 10 32zM605 984.5q16 21.5 18 31.5q3 17 -18 56t-46 61q-60 36 -69 32t4 -22q45 -102 38 -213q5 15 19 30t26 9t28 15.5zM86 440q-30 -30 -18 -164
q0 -19 12 -67q4 -6 8 -15.5t12 -20.5t6 -3q-6 14 -12 27.5t-8 26.5t-4 21.5t-4 18.5l-6 37q-4 37 5 78t9 61zM500 1099q0 3 -7 26t-30 32q-22 8 -37 4q-49 -27 -110.5 -126.5t-66.5 -120.5t-8 -21t-12 3.5t-14 -1.5q-6 -4 -5 -1t-13 5q-14 0 -4 25q0 119 58 204.5t91 117.5
t53.5 44.5t44.5 2t45 4.5q33 24 101 -1q61 -40 97 -115t38 -155t1 -90t-1 -21.5t-6 -67.5q-6 -61 -54 -149q-4 -8 -12 -16q118 -130 78 -336q-16 -80 -58 -154q-42 -75 -110 -124q-6 -8 -7 -13.5t-5 -14t-21 -18.5q-16 -10 -20 -15t-5 -9t-1 -8t-6.5 -12.5t-8.5 -17.5
t-7 -24.5t-34 -15.5t-26.5 31t2.5 37q2 10 -14 16q-42 -6 -66 -6t-57 3t-141 53.5t-119 248.5q0 143 67 246q0 6 3 14t15.5 2t12.5 -2t2 -3t7 -8t11.5 -2.5t3.5 -10.5q-2 -8 -9 -57t-7 -124.5t8 -97.5q2 -18 17 -45q2 -10 8 -14q46 -83 126.5 -89.5t118 24t69 84.5t56.5 171
q27 164 -104 264q-59 45 -141 70q-16 6 -10 16t19 7t15 -0.5t0 2.5t-7 8t8 12t24 2q-6 10 10.5 17.5t22.5 7.5l57 -4q38 -9 68 -19q38 94 30.5 181.5t-15.5 113.5q-9 27 -9 30z" />
    <glyph glyph-name="four" unicode="4" horiz-adv-x="937" 
d="M808.5 590q-4.5 0 -28.5 8q-20 0 -28 4l-58 2q-18 2 -36 1t-38 0t-38.5 1t-36.5 2l-56 2h-57q-58 0 -70 -4t0 -4q12 -2 16 -2h36q32 0 69 -3t100.5 1t97.5 -1t40 -6t14 -1l13 -2h14q29 -4 53 0q-2 2 -6.5 2zM680 573q23 0 25 2l-19 3h-16q-10 2 -14 2l-23 2l-41 2h-84
q-41 0 -30 -4.5t46 -4.5h45l60 -2h51zM330 643q125 5 207 2q8 43 44.5 165.5t69.5 258.5q-36 -44 -156.5 -209.5t-164.5 -216.5zM644.5 1219q-9.5 2 -27.5 2t-35 -17q-127 -153 -170 -190l39 2q39 2 60 13t35.5 19.5t49.5 35t49 51t19.5 55.5t-2.5 29t-17.5 0zM143 428
q-130 24 -116 156q6 27 14 37t48.5 64t159 173t221.5 233t137 164q34 51 40 59.5t10 18.5l-2 2q14 31 25.5 44t13.5 5t8 -14q16 8 17 -4q6 0 16 -12q23 -41 46.5 -82t33.5 -82t3 -86t-18 -122t-59 -347q29 -2 56.5 -3t61.5 -4t43 -19.5t5 -43.5q-6 -25 -37.5 -32t-47.5 -11
t-17.5 -8t1.5 -9t8 -10.5t5 -9.5q4 -10 -6 -8t-27 4q-16 4 -5.5 -1t18.5 -12t1 -9t-10 -2h-13q-11 0 -5 -2q14 -4 15 -11.5t5.5 -11.5t-19.5 -5.5t-29 -9.5q-5 -9 -3 -14q-10 4 -18 5.5t-18 3.5q-31 -216 -39 -330h2l-2 -2l-2 -21q-4 -18 -8 -29t-7.5 -18.5t-9 3t-13.5 -3.5
t-10 -6q-2 7 -3 8t-1 3q-16 -10 -16 -18t-6 -18q-6 -11 -8 -20t-7.5 -24.5t-31.5 -15.5q-32 0 -29.5 31t2.5 37t-6 10t-14.5 7t-16.5 5t-13 6t-10 20q-5 15 -3 23h2q-23 23 -5.5 125.5t28 149t14.5 70.5t6 26h-49q-49 2 -58 2h-78q-69 0 -143 -4h-27z" />
    <glyph glyph-name="five" unicode="5" horiz-adv-x="864" 
d="M705 440q0 22 -1.5 32.5t-5.5 21t-6 14.5t0 -6q0 -16 1 -32.5t-2 -36.5t-5 -39t-6 -42l-3 -18q-3 -19 -11 -40t-17 -30l-16 -33q-8 -8 -8 -26q24 24 24 28.5t3 7.5t4 8t6 9q10 30 11 32t1 3l1 5l19 79q11 41 11 63zM639 279q30 60 35 127v16l-2 2l-2 -2l-5 -26l-13 -60
q-9 -35 -12 -45t-1 -12zM174 1034q-10 0 -8 13.5t9.5 46.5t-1.5 43q-10 10 -29.5 8t-25.5 -23l-19 -73q-20 -78 -24 -125q85 21 101 65.5t-3 44.5zM462 1266h-30q-12 0 -24.5 -2t-23.5 0t-19.5 2t-16.5 1t-20.5 -4.5t-3.5 -5.5q8 -2 16 -1t22 -3t34 1.5t43 0.5t32 5
q-6 6 -9 6zM363 1235q4 -4 14 -3t33.5 0t25.5 5q-8 2 -12 1t-18 2t-17.5 2t-17.5 -3q-12 0 -8 -4zM296.5 1315q4.5 0 12 -3t19.5 6t16 -13h143q68 2 115 3t87 8t53.5 9t25.5 10q37 -4 49 -14t4 -15q-12 -7 -9 -21t-21 -34q-23 -20 -57 -52t-72.5 -50.5t-64.5 -19.5t-78 -4
t-110.5 -7t-117.5 -8q-10 -39 -18.5 -90.5t-15.5 -81.5t-10 -49t-7 -37q204 -23 340 -115q39 -23 58 -43t26.5 -27.5t11.5 -15.5l4 -4v-2q84 -121 49 -299q-26 -132 -92 -204t-121 -103q-8 -10 -8 -15.5t-20 -17.5t-23.5 -16t-4.5 -8.5t-1 -8.5t-6.5 -10t-7.5 -15t-6 -23.5
t-31 -14.5q-41 0 -27 64q2 9 -19.5 13.5t-26.5 7.5t-5 4t-6 0t-39 2t-91.5 30.5t-95.5 70.5q-64 64 -73 201q0 143 67 246q0 6 3 14t15 2t12.5 -2t2.5 -3t14 -9.5t9 -11.5q-5 -15 -14.5 -108.5t1 -147t21.5 -68.5q2 -10 8 -14q46 -84 127 -90t118 24.5t67.5 82t58.5 173.5
q21 121 -50 211l-4 2q-24 36 -84 74t-85.5 42t-30.5 9q-16 4 -45.5 12t-64.5 15q-53 10 -81 49t-33 65h-6q10 33 16.5 77.5t13.5 70.5t12 45.5t14 55.5t35 71t63 61.5t56 42.5t25 18q6 3 10.5 3z" />
    <glyph glyph-name="six" unicode="6" horiz-adv-x="886" 
d="M370.5 1103.5q4.5 27.5 7.5 37.5q10 32 7.5 53.5t-33.5 -6.5q-31 -27 -73 -89t-72 -141q10 6 22 18q11 12 27 12q26 2 63.5 22t41.5 43q5 23 9.5 50.5zM272 369q0 -10 -1 -44t8.5 -109.5t62.5 -121.5q77 -57 172 33q33 33 53 86q109 235 82 334.5t-86 130.5
q-112 32 -178 -26t-92 -152q-15 -79 -21 -129v-2zM703.5 168q1.5 0 9.5 7t18 25.5t21 37.5q16 45 21 68.5t11 49.5t7 67q0 41 -8.5 49.5t-8.5 2.5q7 -37 5 -66l-6 -61q-6 -62 -26 -97q-20 -34 -31 -50.5t-16 -34.5q2 2 3.5 2zM754 313l3 21q3 22 5 37v18q-2 4 -5 -1
q-3 -4 -4 -18q-4 -56 -19 -90t-13 -38l2 2l15 34q14 33 16 35zM117 498q0 -6 2 -14t3 -12.5t1 3.5q2 18 2 36.5t4 38.5t6 43t8 66t12 61q7 17 9 26.5t7 23.5t5 35l-6 -6q-22 -35 -43 -189q-4 -11 -7 -43t-5 -39v-20q2 -4 2 -10zM162 635l2 13q2 14 8 42t2 33
q-4 -16 -6 -25.5t-9 -38.5t-8 -39t-5 -40t4 -21q8 10 8 19zM424 -104v49q-2 12 -19.5 19t-31.5 13q-216 0 -271 303q-25 136 -12 308q47 330 157.5 486t144.5 178t56 37q65 43 138 36q70 -15 88 -68q2 -10 11 -12t28 -5.5t26 -25.5q26 -75 28 -195t-67 -222q0 -29 -16 -19
q-12 6 -13 2t-3 3t-15 10.5t-10 12.5q13 33 19 149t-19 169q-56 68 -138.5 -62t-146.5 -310q100 34 220 16q96 -20 174 -106q79 -99 82.5 -194t-11.5 -157q-20 -139 -123 -227q-6 -4 -12 -10t-34 -28t-130 -56q0 -2 -12 -10t-12 -22t-7 -30t-9.5 -28.5t-28.5 -14.5
q-31 0 -31 11z" />
    <glyph glyph-name="seven" unicode="7" horiz-adv-x="913" 
d="M582.5 561.5q13.5 24.5 23.5 40.5t36 78t-8 -3t-58 -101t-49 -93t-63 -112t-46 -92q18 18 67.5 110t66.5 120t30.5 52.5zM561 584q-8 -8 -20 -30t-26.5 -47.5t-40 -70t-21.5 -51.5q6 10 9 16.5t8 14.5l12.5 20t21.5 36t21 37t25.5 48t10.5 27zM183 1249q32 0 52.5 -8
t43.5 -9t50.5 20.5t42.5 28.5t23 11t16.5 6t16.5 5q-39 6 -106 6t-183 -15q-36 -7 -12 -26t56 -19zM406 1108q-143 0 -240 -29v8q-6 12 -26.5 13.5t-16.5 5.5t5 11t9 10t7 3h-12q-9 0 -14 2.5t2 9.5t15 12t-7 2t-22.5 -5t-5.5 8t11.5 20.5t-7.5 14.5q-18 6 -43.5 13
t-29.5 33t3 42t38 18q261 25 365.5 20.5t361.5 -40.5q36 36 39 18q2 -18 10.5 -19t17.5 -22q8 -43 16.5 -88t6.5 -67t-4 -49q-2 -28 -66 -140q-51 -98 -113.5 -210.5t-172.5 -312t-191 -376.5q0 -41 -20 -55q-2 -2 -4 -2.5t-13 -16.5q-10 -16 -15 -28t-7 -24.5t-29 -14.5
q-31 0 -31 11v38q0 29 -29.5 38t-35.5 9q-23 -3 -23 37q-48 42 37.5 179t113.5 191t75 134t98 162t100 160.5t88 144.5l68 117q-6 2 -86 8t-223 6z" />
    <glyph glyph-name="eight" unicode="8" horiz-adv-x="845" 
d="M580 98l28 15q6 0 6 2t3 3t5 3l11 11q22 20 45 63t44 94t13 108q-4 25 -6 11q-2 -18 -3 -38t-7 -39q-6 -21 -12 -45q-7 -24 -13 -40t-16 -41t-37 -47q-2 -4 -6 -7t-11 -11t-21 -18q-14 -11 -23 -24zM240 358h-2q0 -208 84 -270q84 -53 170 43q16 18 29 45q124 258 72 420
q-19 59 -81 88q-113 24 -196 -56q-70 -67 -76 -268v-2zM375 1238q0 13 -9 13q-9 1 -34 -19t-62 -73t-44 -98t-4 -51t31 -2t37 14t27 46t21 65q4 30 27 55t16 31q-6 6 -6 19zM518 1225q-44 -7 -68 -65t-37 -151t-4 -158t44 -73h22q73 17 103 266q20 178 -60 181zM700 319
q0 7 -4 3t-9 -24t-16 -47q-11 -28 -28 -52q-16 -25 -14 -29q20 20 20 27l4 4l2 4q6 6 9 10q2 4 8 12t8 17q2 8 11 32t9 43zM737 1032v29q-8 31 -16 39q-2 2 2 -19t2 -36t-1 -29t-1 -28t-3 -20q-4 -28 -20 -48q-16 -19 -22 -43l7 4q1 -1 11 9q9 9 18 33q9 23 12 37t4 24t4 22
t3 26zM709 978q0 4 2 9v35q0 18 -4 14q-5 -4 -5 -18t-1 -26t-5 -22t-5 -16t-3 -10v-12q21 42 21 46zM217 1055v4q24 107 111 182q37 29 92 53t151 15q138 -22 199 -173q27 -65 10 -159q-7 -109 -104 -189q-29 -25 -68 -43q51 -22 81 -57q31 -35 64 -85t41 -131
q13 -123 -15 -214t-109 -172q-63 -54 -140 -84q-9 -9 -19 -28q-11 -20 -15 -24t-12 -18q-8 -12 -9 -20q-2 -8 -28 -10t-27 15q-2 17 -4 27t-26 17q-24 6 -34 12q-29 -2 -57 4q-181 31 -232 188q-32 96 -12 238v3q2 4 2 8t1 4t1 4t2 6v6l2 6q57 228 242 305h2
q-126 79 -94 287v2q0 4 2 6v11q2 2 2 4z" />
    <glyph glyph-name="nine" unicode="9" horiz-adv-x="919" 
d="M84 399q-12 -35 -10 -59q13 -164 32 -169t15 -1q-4 6 -6 11t-6 13t-9 23l-12 62q-6 37 -3 70q4 34 -1 50zM641 930q0 8 3 109t-71 163q-97 72 -171.5 -26.5t-139.5 -287.5t88 -270q115 -32 179.5 25t91.5 154q13 66 20 129v4zM122 939q-5 -24 4 -27t18.5 9.5t19.5 31
t20.5 39t20.5 32.5q8 12 15 33.5t16.5 45t21.5 43t28.5 30t21.5 27t-2 27.5t-26.5 9t-51.5 -30q-110 -96 -122 -226q16 16 19 -2q2 -18 -3 -42zM661.5 342q-4.5 -8 -7.5 -20.5t-12 -32.5t-7 -23q6 12 10 18t7 13.5t12 24.5t10.5 29.5t6.5 30.5t0 12t-9 -17q-4 -12 -5 -19.5
t-5.5 -15.5zM722 405l-1 44q0 22 -4 10q-4 -16 -6.5 -29.5t-8.5 -29.5t-20.5 -69.5t-30.5 -73t-20 -28.5q-8 -8 -17 -28l7 2q20 20 24 26l19 31q10 23 16 44.5t24 58.5t18 42zM25 303q0 148 67 246q0 6 3 14t15 2t12.5 -2t2.5 -3t14 -9.5t9 -11.5q-7 -21 -15 -114t2 -144
t21 -66q2 -10 8 -14q46 -84 154 -92t165 127.5t72 310.5q-103 -37 -219 -19q-54 11 -100 41.5t-69 60.5q-122 160 -77 357q22 141 123 225q16 16 25 21q41 33 99 49t92 24t44 4.5t19 -3.5q251 33 317 -279q29 -139 14 -319q-6 -55 -18 -105q-24 -232 -107 -368.5
t-163 -186.5q-11 -10 -29 -37t-23.5 -32t-11.5 -17t-8 -20.5t-28.5 -10.5t-28 15.5t-3.5 28.5t-49 24h-26q-21 -4 -63 7q-227 60 -240 296z" />
    <glyph glyph-name="A" unicode="A" horiz-adv-x="1030" 
d="M455 578q105 -78 184 -252q26 0 61 6q20 305 88 600q-179 -84 -333 -354zM692 178q0 20 1 38t1 38l-24 -6q16 -42 22 -70zM342 348q66 -18 150 -24q-51 72 -107 122q-25 -49 -43 -98zM656 959q-5 11 -21 15t-34 -12q-61 -58 -118 -133t-86 -124q80 64 107 78q27 13 45 41
t29 38q12 10 31 18t34 13q10 6 2 10q4 4 2 8q-2 5 2 13l8 16t-1 19zM315 639q-49 21 -76 22q-26 1 -55 7t-68 -10q-38 -17 -46 -22t-24 -29t-21 -54q13 25 43 34q77 23 98 19q13 5 34 16q20 11 36 18t45 5l-2 -2q16 0 36 -4zM219 403l55 115q-82 34 -157 -14q14 -28 43 -56
q30 -29 59 -45zM978 1055q38 0 40 -33q0 -8 -2 -21q-72 -219 -129 -632q116 30 163 47q48 18 59 21t11 -3t13 -3q12 3 8 -1t7 -5t11 -7t-8 -17q-159 -67 -272 -100q-29 -231 -37 -373q0 -63 -11 -114v-7q-2 -4 -2 -8t-2 -9t0 -15t4 -28t-24 -30q-35 -12 -39 10t2 56v16
q-4 7 -8 11t-16 -6t-16 4q-4 16 -13 16q-4 -2 -7 15q-4 17 -8 41q-8 45 -8 70v13q-23 47 -58 120q-36 73 -85 150q-29 -4 -55 -4h-47q-14 0 -43 -16t-48 -6q-20 10 -24 18t-10 19v2q-8 2 -21 6q-54 -135 -65 -193q-11 -59 -21 -65t-20 -16q-9 -10 -17 -3t-17 13t-9 7t-8 4
t-13 6q-4 3 -18 -1q-12 -8 -13 6v17q27 144 78 276q-104 63 -155 180q-3 3 -5 9t-9 21t-7 37q0 60 55 88t109 36q90 14 176 -31q169 271 352 439q117 108 187 67q18 -10 18 -29q0 -18 19 -37l-11 2q7 -4 15 -5t14 -7t10 -12t7 -11t9 0t14 5z" />
    <glyph glyph-name="B" unicode="B" horiz-adv-x="970" 
d="M399.5 -8.5q122.5 44.5 194.5 180.5q-237 -72 -426 -213q24 -12 67 -12q42 0 164.5 44.5zM563 555q-37 10 -65 10t-45 -7q-17 -8 -19 -26t8 -23t26 -5q62 0 95 51zM451 1061q0 12 -6.5 18t-12.5 3q-9 -5 -19.5 7t-23.5 0q-11 -12 -27 -25q-16 -14 -24 -26t-43.5 -43
t-91.5 -182q13 12 31 34t44 38t33.5 27.5t13 22.5t11.5 20.5t18.5 17.5t18.5 11t11 5t12 6t23.5 14.5t24 25t7.5 26.5zM896.5 219q-36.5 0 -77.5 -4q-20 -172 -135 -281.5t-291 -136.5q-4 -6 -20.5 -16t-26.5 -10.5t-19 -16.5t-22.5 -24.5t-35 -10t-17.5 29t-17 40.5
q-20 10 -108 46t-88 106t27 73.5t31.5 15t8 14.5t13.5 -2t135.5 71t370.5 133q16 47 22 96q18 85 -6 143q-92 -67 -163.5 -42.5t-85.5 68.5t28.5 82t169.5 5q55 113 55 239.5t-28.5 156.5t-65.5 35t-69.5 -23.5t-57.5 -80t-41 -114.5t-28.5 -125.5t-20.5 -116t-23 -109.5
t-50.5 -102.5t-38.5 -62.5t-4 -12t-6.5 15.5t-15 -19t-22.5 -22.5q-12 9 -18 24q8 25 8 27.5t-11 -4t-14 10.5q-4 16 6 -39q-20 0 -14 41q0 27 -1 27h-7q-6 0 -8 8q-4 2 -7.5 2t-7.5 4q-48 192 27.5 394.5t118.5 255t35 24.5q-4 -16 -31 -61t-78.5 -165t-44.5 -271
q50 369 201 507q22 33 57 58q22 36 41.5 39.5t32.5 5.5h30q131 -26 216 -72t115 -88.5t34 -71.5q20 -145 -23 -161q-31 -113 -126 -211q118 -89 118 -267q89 9 143 9t65 -3t-4 -25t1 -30l-35 -12q-60 6 -96.5 6z" />
    <glyph glyph-name="C" unicode="C" horiz-adv-x="950" 
d="M463 944q-143 -167 -187 -250q18 18 50 39t42 22t18.5 14t18 27.5t17.5 28t27 15.5t43 -2q23 -4 41 8t21 32q7 47 -20.5 76.5t-70.5 -10.5zM407 -126q80 -5 156 32t136.5 94t106.5 127t77.5 131t48 102.5t18.5 47.5t4 3t3 -8.5t2.5 -8.5t3.5 3t4 1t7 -14.5t9 -0.5
q4 10 8 -6l4 -17q-69 -219 -182.5 -352.5t-211 -173t-175.5 -41.5q-18 -6 -28 -12t-11 -6h-12q-11 0 -25 -8q-25 -14 -41 3.5t-16 25.5q0 9 -1 9t-1 2q-162 48 -180 246t59 439q115 288 301 466q69 97 143 111q34 24 40 21q5 -4 15.5 2t11.5 -4t3 -24.5t7 -31t12.5 -33
t23.5 -50t35.5 -113t-50 -222t-75.5 -172t-24.5 -37t-23.5 0.5q-16 24 -16 146.5t50 227.5q-94 -94 -184.5 -253.5t-143.5 -301.5q-29 -92 -29 -169q0 -174 141 -182z" />
    <glyph glyph-name="D" unicode="D" horiz-adv-x="837" 
d="M381 -74q93 70 164 238q-102 -57 -146 -152q-18 -43 -18 -86zM271.5 1024q-5.5 0 -8.5 7t-11 3l-8 -8q-14 -28 -25 -65l-16 -54q-4 -10 -6.5 -21.5t-6.5 -22.5t-8 -25q11 33 47.5 62.5t42.5 31.5q26 3 39 67q2 8 -9 10.5t-18 8.5t-12.5 6zM365 -246v49q-2 14 -26 21.5
t-34 15.5q-18 4 -16 18t10 59.5t35.5 107t84 124t156.5 101.5q39 117 53.5 237.5t-1.5 203.5q-28 143 -127 253q-45 52 -73 70t-28 20l-2 4q-44 -154 -83 -424q-39 -269 -41 -388q-3 -119 -2 -180.5t16 -121.5h-8q-10 -6 -13 -10q-4 -8 -5 -21.5t-5 -9.5t-11 5t-12 14
q-2 6 -2 1t-1 -11.5t-3 -11.5t-9 2t-12 15.5t-3 -6.5q2 -16 4 -23t-6 -5t-13.5 6t-9.5 7t-9 3.5t-10 -15.5t-15 -39.5t-34 -27.5t-43.5 7.5t-19.5 37.5q-12 437 65.5 750t129.5 452q6 10 13 25.5t21 38t19 22.5h11q12 0 20 4t9 0t6 0t12 11.5t9.5 3.5t14.5 -4t14 -6
t8.5 -9.5t7.5 -6.5t4 -1t9 2t-19 -71q8 -6 15 -6q-2 6 -2 11.5t14 2.5q3 3 -4.5 12.5t0.5 7.5q13 -2 75.5 -37t154 -168.5t81.5 -388.5v-4q0 -25 -4 -55t-8 -67t-12 -78q84 11 125 8t28 -10q-8 -4 -2 -6.5t2 -4.5t-4 -7t14 -15q10 -10 11 -21q-2 -9 -11 -2q-104 2 -180 -12
q-58 -234 -166 -338q-4 -4 -8 -4t-11 -5t-11.5 4t-17.5 -11q1 3 -8 -7t-15 -10q-18 -16 -18.5 -27.5t-6.5 -27.5t-8 -28.5t-29 -14.5q-30 0 -30 10z" />
    <glyph glyph-name="E" unicode="E" horiz-adv-x="921" 
d="M375 817q26 0 61 66q8 14 16 25q8 10 -3 20q-10 10 -13 20q-2 10 -6 10t-6 8t-16 9q-53 -40 -97 -170q-18 -57 -30 -121q4 16 16 24t22 12q10 5 27 51t29 46zM614 209h-17q-11 0 -26 6q-97 8 -151 39q-78 -29 -121 -127q-19 -41 -25 -94t14 -82q47 -67 197 -76
q18 0 27 -2q141 -3 251 129q110 133 159 349q8 40 10 45t4 2t3 -7t3 -8t4 2t4 2q8 -16 12 -20t5 3q2 7 8 -3q2 -6 6 -17q-68 -336 -238 -484q-39 -34 -78 -49t-90 -30q-97 -28 -253 0q-6 -8 -8 -13q-2 -6 -6 -20q-5 -14 -7 -25q-1 -11 -21 -13q-38 -5 -38 40v19
q-2 14 -27 21q-47 13 -57 52q-81 50 -92 132q-15 72 40 178q79 142 207 202q-25 58 -37 106t-12 130v53q9 90 43 178q48 124 120 196q73 73 162 71q44 -2 83 -50q0 -2 1 -2t5 -7t19 -31q67 -110 36 -249q-23 -100 -41 -156t-22 -81t-4 -30t-8 -9q-24 -11 -31 -3
q-19 23 -30 103q-23 168 11 271l-10 -10q-214 -301 -144 -427q31 -58 101 -96q27 -14 40 -32t32 -19l20 -22v-29q-4 -8 -14 -7q-9 1 -19 1z" />
    <glyph glyph-name="F" unicode="F" horiz-adv-x="1599" 
d="M723 776q-30 -59 57 -66q118 -10 185 36q39 26 61 41t40 42q17 27 26 41q8 14 12 22t11 17t14 17t16 18q-23 -10 -94 -51t-170 -74t-124 -37q-24 -4 -34 -6zM1264 627q328 57 331 -7q2 -22 2 -38t-12 -24t-4 -15q8 -6 6 -26q-3 -21 -35 -21q-136 13 -346 -33
q-4 -16 -38 -117t-58 -226q-24 -126 -36 -186t-9 -118h-6q-10 0 -13 -7t-8 -20q-4 -12 -6 -8q-4 4 -11 6t-7 14q0 6 -1 1q-9 -44 -23 -2q-3 9 -5 -5t-1 -21t-7 -5q4 23 6 42t6 39t7 39q2 19 6 33t5 24t3 19l2 21q6 26 7 37q1 10 3 20l6 37q4 10 5 18q6 46 16 56q5 19 10 33
t8 27q4 13 5 20t5 16l2 16l2 8q0 4 1 6t1 5q-6 -12 -13 -21t-11 -28t-7 -28t-5 -16q-9 -39 -13 -45l-14 -75q-7 -20 -8 -39q-2 -19 -8 -41q-5 -22 -7 -35l-12 -68q-2 -10 -3 -17t-3 -16q-2 -10 -3 -18t-3 -18q-4 -20 -4 -54v-40q-4 -14 -14 -24q-11 -10 -11 -16t-4 -22
t-5 -28t-18 -15q-17 -2 -19 21q-1 23 -1 39q-2 16 -21 23t-21 15q-3 7 -5 9q-16 12 -12 43q26 297 139 637q-112 -25 -156 -38q-44 -14 -45 -8q0 6 -5 14q-6 10 2 9h4q-19 8 -11 17q8 10 8 16t31 23t65 34t75 35q42 18 81 37q29 83 74 174q-279 -99 -503 -28q-85 28 -161 89
q-248 199 -47 443q90 104 254 196q13 0 21 -6t4 -16t4 -10q8 1 8 -13t-4 -12t-2 -6q4 -8 4 -3t4 -5q0 -5 -65 -91q-65 -87 -92 -158q-54 -139 -22 -220t136 -94q66 -7 151 16q86 24 143 47t203 106q145 83 361 177q215 93 358 131q329 86 486 -33q23 8 26 -23t11 -37t11 -9
t5 -9t3 -8t0 -11q-1 -10 7 -63q-2 -2 -10 -8t-11 -11t-33 4q-83 25 -237 31t-393 -71q-127 -41 -276 -121q-12 -10 -26 -18q-14 -7 -32 -19t-40 -24q-38 -84 -82 -207z" />
    <glyph glyph-name="G" unicode="G" horiz-adv-x="1327" 
d="M710 -478q4 10 39 97q36 88 87 264q-207 -188 -283 -292q-75 -105 -105 -178t-18 -134q74 -74 176 46q55 65 104 197zM381 596q0 -24 5 -42t9 -14q4 3 56 93t127 179q75 88 135 122q-40 13 -49 10q-8 -4 -18 -4q-52 0 -84 -33q-93 -96 -169 -219q4 -4 9 -12t-8 -32
t-13 -48zM481 -271v17q-2 16 -27 26t-32 25q-247 40 -215 371q12 145 76 324q122 289 317 466q96 96 195 128q100 33 170 8q60 -30 65 -90q0 -12 7 -16t24 -14q17 -9 19 -32q3 -24 -2 -103t-51 -168t-99 -136q-2 -9 -8 -15t-14 3t-11 5q-2 -4 -2 4t-8 13q-15 8 -4 19
q11 12 51 130q40 119 31 185q-20 47 -94 15q-74 -33 -219 -221t-251 -448q-51 -142 -33 -231q18 -111 126 -119q88 -7 182 100t230 378q30 58 54 98q2 12 4 14t6 1q3 -1 5 -4t5 0t11 3t12 4q5 4 17 -2t16 -2t8 -7q4 -12 8 -16t7 -3q2 1 9 -4q12 -9 30 -14q8 -2 10 -28
q2 -25 4 -43t0 -39t-4 -51t-6 -59q72 59 126 101t83 65q40 18 50 18q9 0 3 -8t-4 -10t6 -3l8 -4t2 -10t5 -9t15 -1t13 -1q4 -1 -3 -8t-33 -25q-27 -18 -69 -51q-42 -32 -98 -74t-121 -91q-51 -286 -125 -508l-2 -4v-2h-2q-6 -14 -33 -82t-87 -151q-173 -243 -365 -228
q-68 10 -105 42q-93 80 -22 257q97 220 528 594q36 138 52 213q-129 -218 -219 -312q-44 -46 -93 -77q-8 -10 -12 -17t-13 -17t-27 -25q-17 -15 -17 -21t-5 -22q-4 -16 -6 -28t-24 -15q-25 0 -25 42z" />
    <glyph glyph-name="H" unicode="H" horiz-adv-x="1243" 
d="M479 751q0 -9 -6 -32t4 -27q15 -7 56.5 93t48.5 120q4 20 4 41t-3 34t-8.5 19.5t-9.5 0t-7 -5.5t-9.5 -0.5t-19.5 -39.5q-49 -144 -76 -204q26 17 26 1zM1040 -147l-1 23q-1 22 -6 87t8.5 147.5t18.5 122.5t6 61t1 28.5t-4 -5.5q-6 -29 -9.5 -59t-11.5 -64t-10 -73
l-4 -78v-156l-2 -32q2 -10 2 -11v-24q4 -8 4 -17.5t2 -13.5q-4 6 -7 9t-1 -7q0 -16 1 -23.5t-7 -3.5q-10 2 -18.5 12.5t-15.5 -6.5t-16 -41t-48 -30t-39 49q-16 336 69 709q-47 -4 -104 -4t-115 8q-117 -5 -178 -15q-81 -403 -39 -694v-33q0 -10 -3 -18t-7 2
q-7 10 -14.5 -2.5t-10.5 -1.5q-4 4 -4 6t-2 4q-4 -6 -17 -18t-13.5 -18.5t-5.5 -24.5t-6 -30.5t-23 -16.5q-25 0 -25 11v54q-2 16 -21.5 24.5t-27.5 16.5t-11 18.5t-7 17.5t-5.5 9t-8.5 24t-12 70t-5 97t3 99t7 132t33 207q-111 -54 -150 -113t-47 -79.5t-12 -18.5
q-6 4 -7 4h-22l-14 14q-13 13 -25 29q4 -4 0 9t3 20.5t-3 29.5t-10 30.5t14 15.5q43 115 135.5 179t200.5 97q15 53 84 238t74 219q17 18 27 29t17 18.5t9.5 -5t16 -12.5t16.5 -12q10 -41 23.5 -82t14.5 -84t-16.5 -88t-27.5 -78t-17.5 -57.5t-13.5 -48.5q63 6 122.5 6
t109 -1t85 -2t47.5 2t19.5 4t17.5 3q75 240 97 283t31.5 56t16.5 21.5t11 8.5t14.5 -1t19.5 1t10 -1t6 0t13.5 10t11.5 3t16.5 -4t15.5 -6t9 -11.5t9 -9.5t11.5 1.5t0.5 -17.5q-55 -127 -77.5 -243t-36.5 -178t-16.5 -76.5t-13.5 -70.5q-39 -201 -47.5 -367.5t1.5 -225.5h-8
q-16 0 -17.5 -21.5t-5.5 -17.5t-11 6t-9 12q0 8 -3 -7t-6 -15l-2 22v19q0 12 -2 18v17z" />
    <glyph glyph-name="I" unicode="I" horiz-adv-x="727" 
d="M639 1094q0 6 -2 10q-93 5 -170 -20q-78 -25 -78 -31t-2 -9q-8 -2 -10 -11t24.5 -5t56 -7t51.5 -17t29 11t19 19.5t16 13.5t24.5 18t30.5 14q10 8 11 14zM406 918q-25 0 -25 17t4 23.5t-9.5 11.5t-17.5 20t-9.5 57.5t146.5 56.5t183 14q40 56 47 35q0 -14 16.5 -14
t16.5 -21q150 -5 250 -32t102 -33t11 -13.5t-2 -16.5t-2 -15.5t6 -15.5t-4 -26.5t-19 -17.5q-43 2 -115.5 9.5t-140.5 7.5h-51q0 -2 1 -2.5t1 -22.5t-17.5 -68t-49.5 -158t-72 -321t-35 -411q81 -6 272 -37q12 -4 27.5 -11.5t29 -13.5t23.5 -12t10 -10t1 -14.5t5 -18.5t1 -9
t1 -7.5t12.5 -12.5t4.5 -10t-2 -16.5t-4.5 -16.5t-9.5 -11t-6 -9t-1 -5.5t4 -10t-18 0.5q-99 23 -141 18.5t-117 -1.5l-76 2q-2 -12 -4 -22.5t-8 -1.5q-9 14 -14.5 1t-8.5 -4q-4 8 -8 12q-23 -16 -24 -22t-7 -22.5t-8 -28t-29 -13.5q-30 0 -30 10v50q-2 12 -24.5 22.5
t-37.5 12.5h-14q-153 -10 -236 -37q0 20 -23.5 20t-19.5 4t4 11.5t11 11.5q6 2 1 1t-23 -1t2 14.5t6 10.5t-21.5 -5.5t-5.5 6.5q2 10 10 20.5t-8 14.5q-20 4 -45 9.5t-34.5 44t40.5 45.5q109 16 186.5 28.5t143.5 16.5q-2 51 1 104.5t8 151.5q9 173 144 546q16 43 31.5 86.5
t32.5 86.5q-115 -9 -205 -43h-14z" />
    <glyph glyph-name="J" unicode="J" horiz-adv-x="1155" 
d="M653 -117q-209 -185 -287 -289q-79 -104 -110 -176t-20 -131q47 -52 121 -10t155 227q4 10 36 85q31 75 105 294zM886 1102q-1 0 -1 2v2q-60 6 -155 -8t-95 -32q0 -3 -6 -3t-6 -7q1 -13 25 -9q24 5 52 -11q72 -39 82 -8q4 12 18 14t18 13q6 10 26 15t30 13q8 3 11 11
q2 8 1 8zM1036 965h-14q-35 -344 -62 -514q-26 -171 -30 -199t-8 -55q149 120 241 184q41 18 52 18q7 0 0 -9t1 -11q7 -2 11 -4t2 -10t5 -10q7 -1 15 -1q9 0 13 -1t-4 -8t-115 -82q-108 -75 -240 -175q-4 -24 -4 -33v-4h-2q-47 -242 -127 -471l-2 -4l-2 -2
q-57 -134 -146 -257q-91 -121 -212 -173q-64 -27 -145 -19t-127 80q-44 78 16 220q96 210 538 585q52 156 96 426v13q2 4 2 7t15 84t63 423q-147 -4 -252 -45h-16q-16 0 -20 12t-5 17q1 5 5 11t-8 12t-17 20q-4 15 -8 38q-5 23 27 38q86 41 325 54q9 14 21 14t18 10
q6 9 17 6t15 2t9 3q4 -2 12 -5t22 9q13 12 19 4t6 -18l-2 -33q67 -7 166 -28q99 -22 102 -29t12 -15t-1 -17t-1 -14t5 -15t-5 -28q-1 -17 -18 -18q-44 2 -72 5t-55 5t-57 4t-74 3z" />
    <glyph glyph-name="K" unicode="K" horiz-adv-x="1132" 
d="M1210 1064l4 9v8q8 25 -3 44t-19 35q-8 14 -15 22l-28 32t-64 33q-64 16 -10 -2q40 -19 49 -27q8 -8 22 -18t25 -22q5 -6 17 -23q14 -20 14 -51v-14l2 -5v-10q2 -4 2 -7t2 -7q2 2 2 3zM1165 1162q0 1 -2 3q0 2 -1 2q0 1 -16 17t-22 16t-6 -2l17 -16q4 -2 7 -6t10 -12
t12 -16q5 -9 7 -14q1 -4 3 -8t3 -4t1 -2t2 -2l4 -4q-6 30 -12 38q-7 9 -7 10zM550 899q9 34 9 64t-8 40q-8 11 -12 5q-3 -6 -7 -6t-10 -3q-6 -2 -19 -38q-13 -37 -27 -74t-26 -73q-13 -36 -24 -58q25 17 27 4l-9 -51q0 -8 7 -11t48 82q42 85 51 119zM575 1100q0 -15 14 -15
t17 -12q10 -41 24 -82q30 -90 0 -167q-29 -77 -61 -195q83 23 147 35t88 22t62 26q335 144 271 314q-47 113 -192 155q-54 15 -96 18t-45 9t1 3t0 5t-5 5q0 -4 -10 4t-9 11t3 5t2 4q0 3 -13 9t-5 15t14 15q210 51 340 -3q151 -60 129 -277q-18 -172 -111 -304
q-154 -210 -458 -241q-40 -8 -102 -29q77 -135 266 -311q110 -105 207 -152q-20 -10 -1 -27q19 -16 13 -16t-12 -4t-19 2q-6 2 -2 -1t9 -8t9 -8q3 -3 -6 -3q-14 0 -25 2t3 -6l21 -12q7 -3 -2 -7t-25 -5t-5 -14q11 -12 26 -32t4 -36t-29 -21q-12 -10 -22 -16t-9 -44
q-1 -8 -17 -10t-24 8t-8 47q-2 16 -29 28t-32 30t-9 28q-211 170 -356 500q-59 -325 -21 -590v-33q0 -10 -3 -18t-7 2q-8 10 -12 2t-6 -11t-6 5q-7 16 -9 13t-14 3t-35 7t-63 5t-49 31q-23 75 -23 154q0 221 21 356q-104 -95 -122 -209q-3 -18 -7 -18h-21q-8 -4 -55 31
q6 -2 0 6t-5 13t1 15t-16 29q-16 18 -11 27q4 10 10 12q19 137 103 226t190 143q49 155 111 317q63 162 63 195q15 19 45 47q8 8 10 -2z" />
    <glyph glyph-name="L" unicode="L" horiz-adv-x="983" 
d="M188 -80h-36q-13 -37 41 -47q22 -6 53 -6q56 -11 106 12q-27 9 -53 19q-57 22 -111 22zM733 624.5q0 -8.5 3 -11.5t7.5 -4t4.5 -8q0 -16 26.5 12t34.5 54q10 31 24.5 134.5t2.5 107.5q-4 2 -8.5 -5t-8.5 -16t-7 -18.5t-7 -15.5t-12 8l-9 12l-10 -62q-10 -63 -26 -121
q-15 -58 -15 -66.5zM1999.5 -127q15.5 0 11.5 -4t-4 -11.5t-12 -11.5q-6 -2 -5 -2h24q21 0 1 -15t-6 -11q16 4 23.5 6t6.5 -8t-12 -20.5t7 -14.5t40.5 -7.5t30.5 -14.5t13 -19q6 -27 -1.5 -33t-131.5 -30t-318 -29l-2 2q-4 -2 -12 -2h-6q-246 4 -486 43h-6q-16 4 -148.5 29
t-469.5 104q-54 -33 -101 -49q-40 -26 -53.5 -45t-18.5 -24.5t-9 -20.5q-5 -14 -7 -25.5t-29 -13.5q-30 0 -30 10v49q-4 22 -47 33h-29q-97 24 -128.5 84.5t-16.5 130.5q19 62 70.5 79t89.5 7t68 -17.5l80 -20t93 -21.5q157 242 235 557.5t85.5 392t27.5 114.5t49.5 68
t47.5 50t19 20l15 -2q13 -2 19 4q4 8 14 -7.5t14 -56.5q-6 -14 -8 -27.5t-9 -55.5t-14.5 -111.5t-20.5 -177.5q-42 -350 -136 -560q-27 -55 -53.5 -125.5t-59.5 -123.5q355 -73 492.5 -81t233.5 -14t218 -5q181 2 328 55q-2 -4 0 -9q0 -8 10 -8q8 -4 23.5 -4z" />
    <glyph glyph-name="M" unicode="M" horiz-adv-x="1118" 
d="M782 72q2 -4 3 19q1 24 3 52l5 78q-11 1 -14 -71t3 -78zM758 152q-10 -73 -2 -93q0 -46 6 23q0 66 9 124t9 68q-2 8 -8 5q-9 -9 -14 -54q-4 -45 0 -73zM172 1128q-8 0 -8 -11q0 -134 -29 -255q6 4 11 11t20 27t24 54q8 34 36 44t28 38q0 27 -27 62q-27 36 -41 26
q-6 4 -14 4zM162 1192q0 41 14 49t24 0t11 -8h2q4 -4 15 -6t20 -13l12 -20l27 -29q78 -67 55 -170v-12q-14 -129 -41 -285q61 185 118 265q17 25 42 27t49 -34t31 -110q19 -176 -45 -477q2 10 33 64q86 145 195 219q65 44 134 34q73 -19 13 -306q-38 -194 -46 -262
q-8 -67 4 -89l5 -2q124 68 231 278q41 80 67 150t30 71q4 0 10 -6t8 -1t10 -4t16 2t15 -11l4 -17q-106 -294 -242 -457q-114 -141 -192 -151l-3 -2q-76 -16 -125 32t-33 170t52 251q37 130 42 154t-3 16q-20 2 -54 -29t-70 -89q-95 -153 -128 -367q-15 -99 -23 -78
q-8 14 -18 11t-10 11q0 6 -3 4t-8 -5t-9 -6t-3 3q0 12 -5 14q-5 1 -8 13t-4 12t-4 13t-8 17t-2 19q3 13 13 73t23 146t36 234t28 245q5 96 -5 103q-20 12 -91 -215q-32 -98 -68 -218l-69 -230q-80 -266 -98 -310l14 102q-23 -84 -36 -114l-17 -97q-12 -12 -12 -1t3 17t7 25
l6 33q-6 -6 -8 -10q-8 -8 -14 -10q2 12 7 37q21 106 9 112q-7 1 -12 -69q-6 -70 -8 -82q-19 -13 -19 0q-2 8 -13 -1t-11 -3q-5 8 -17 5t-12 7q2 10 -13 12t-15 15t94 623q96 610 96 718zM72 -184q2 0 2 1t2 1q-2 -4 -2 -8t-2 -5v11z" />
    <glyph glyph-name="N" unicode="N" horiz-adv-x="1015" 
d="M362 332l-10 -19q-15 -31 -22 -48q2 3 30 57q0 6 2 10zM672 72q2 -4 3 19q1 24 3 52l4 78q-4 0 -11 -70q-8 -70 1 -79zM647 152q-10 -73 -2 -93q0 -46 6 23q-1 63 9 122t10 70q-4 15 -15 -4q-15 -71 -8 -118zM371 1128q-9 0 -9 -11q-8 -168 -28 -255q12 8 32 41
q19 33 25 59t34 36t28 36q0 25 -27 63t-41 27q-6 4 -14 4zM185 -164q-15 2 -15 16t24 165t56 366t71 480t39 309q0 45 6 56q14 28 42 7q0 -2 2 -2h2q4 -4 15 -6t19 -13l13 -20l26 -29q44 -38 54 -86t2 -84v-12q-11 -100 -41 -285l-8 -112q99 176 159 245q60 70 107 103
t90 27q60 -16 1 -285q-37 -169 -67 -285q-30 -117 -55 -223t-8 -139l4 -2q124 68 231 278q54 106 90 213q4 8 8 8t8 -3q3 -3 5 -6t2 1q4 6 12 -3q7 -9 15 1t12 1t8 -28q-106 -294 -242 -457q-114 -142 -192 -151l-2 -2q-77 -16 -128 34t-25 184q27 133 74 290q48 158 71 233
q23 76 36 120t5 36q-6 0 -57 -64t-103 -176q-53 -112 -65 -153l-12 -41q-1 0 -1 -2v-12q-23 -78 -45 -151t-51 -169q-28 -96 -45 -135l14 102q-24 -87 -37 -114l-16 -97q-12 -12 -12 -1t3 17t7 25l6 33q-6 -6 -8 -10q-8 -8 -15 -10q2 12 16 77t1 72q-5 1 -12 -69t-9 -82
q-18 -12 -18 0q-2 8 -13 -1t-13 -2t-15 4q-12 -3 -12 7q2 10 -14 12zM270 -184q2 0 2 1t2 1q-2 -4 -2 -8t-2 -5v11z" />
    <glyph glyph-name="O" unicode="O" horiz-adv-x="1036" 
d="M197 725q27 35 41 56.5t24 20.5t24.5 9t29.5 13t36 21.5t42 54.5t15 62q-5 25 -16.5 24t-19.5 -3t-13 6q-2 4 -2 8q-65 -77 -161 -272zM512 -236.5q0 -13.5 -6 -30t-8 -27.5t-29 -13q-31 0 -31 11v48q-2 12 -20.5 18.5t-32.5 12.5q-218 0 -271 305q-24 135 -12 307
q49 317 183 516q4 10 59 89.5t135 107t121 25.5q66 -13 86 -68q2 -10 11.5 -12t29 -5.5t27.5 -25.5q26 -73 26 -197.5t-67 -222.5q0 -6 -3 -15q-2 -9 -14 -2t-12 3t-3 3t-8 8t-13 3t-5 11q15 37 19.5 152t-19.5 165q-37 37 -90 -4q-69 -60 -151 -258v-2q-94 -217 -127 -488
q-11 -104 10.5 -177t60.5 -103q70 -53 147 15.5t178.5 283.5t107.5 508q0 20 4 18t6 -6t5 -1t10 1t11 2t14.5 -4t14.5 -4t8 -9.5t8 -18.5t6.5 -4t8.5 -3v-4l2 -23v-6q2 -6 2 -18v-72l-2 -80q-2 -8 -2 -22l-2 -9v-16q-2 -4 -2 -10v-4l-2 -2q0 -26 -31 -119l-8 -47v-13l6 11v4
q8 8 16 30v3q4 8 4 10l19 65v6q0 2 16 115l2 37q9 59 2 115l-2 28q-2 3 -2 7l12 -9q12 -12 14.5 -47t6.5 -61q-25 -416 -159 -552t-224 -173q-4 -14 -18 -27q-23 -16 -23 -29.5z" />
    <glyph glyph-name="P" unicode="P" horiz-adv-x="776" 
d="M340 356q80 -24 162 89t101.5 251t29 201.5t-17 76t-81.5 -71.5t-149 -284q-13 -87 -45 -262zM305 771q6 21 12 47t17.5 63t-2.5 59t-40 33.5t-28 -4.5q-7 -118 -39 -238q2 0 8 -3q5 -3 5 -16t7 -24.5t14 -8.5t15.5 17.5t16.5 34t14 40.5zM268 -168v-20
q-14 -64 -21.5 -48t-16 1t-10.5 -8q-3 7 -3 12q-18 -11 -18 -21t-6.5 -18.5t-9 -33t-36.5 -24.5q-33 0 -30.5 31t4.5 37q0 12 -23.5 18t-31.5 14t-10 19q-1 13 0 19t-4 26t-2 64.5t12.5 91.5t20.5 94.5t24 143.5t78 352.5t77 449.5q4 29 -2 55q14 32 24.5 44t16.5 -2
t16.5 -10.5t20.5 -12.5q23 -41 46.5 -82t33.5 -82t0 -104q149 256 239 256q66 -7 84 -74q31 -119 31 -248l-2 2q10 -186 -78 -383q-49 -109 -176 -195t-211 -51q-33 -255 -37 -311l2 -1q0 -1 -2 -1z" />
    <glyph glyph-name="Q" unicode="Q" horiz-adv-x="1359" 
d="M510 725q25 35 36 56.5t21 20.5t24.5 9t30.5 13t34 21.5t27 36.5t15.5 45t2 43.5t-16.5 15.5t-22 -4t-11 7q-2 4 0 8q-84 -104 -141 -272zM1192 231l12 21l10 24l-2 3q7 14 7 24q4 8 8 29l2 22v6q4 29 4 36l1 57q1 49 3 95t-14 107v4q8 -4 8 -6q16 -12 20 -47t9 -61
q0 -544 -285 -705q182 -9 274 -131q14 0 12 -20q-3 -20 2 -25.5t12 -16.5t-2 -20.5t-9 -26t9 -31.5t-2 -38t-26.5 -17.5t-13.5 40.5q-6 50 -41 94q-67 47 -160 66t-250 -17q-146 -56 -300 -33t-261 175q-108 153 25 249q59 41 155 62q16 -9 13 -19q-8 -10 -1 -8t4 -8t-5 -8
t-2 -5l2 -3q0 3 2 -3q0 -4 -23.5 -17t-72 -60t-37.5 -132q14 -86 135 -105.5t264 17.5q-161 62 -215 332q-25 123 -23 264q17 295 140 516q58 96 106 142q89 85 193 80q68 -15 92 -68q4 -11 30.5 -16t38.5 -27q32 -60 43.5 -190.5t-49.5 -229.5q2 -6 -1 -15t-14 -2t-12 3
t-3 3t-7.5 8t-10.5 2t-7 3t2.5 21.5t2 135t-31.5 169.5q-67 67 -125.5 -40.5t-95.5 -221.5l-2 -2q-76 -199 -90 -488q0 -111 28.5 -180.5t63.5 -97.5q78 -53 151.5 16t130.5 225q108 299 89 564q-2 14 0 16t5 1t6 -5t6 -1t9.5 1t9.5 2t15 -4t16.5 -4t12.5 -17t10.5 -16
t13.5 -6v-2l2 -21v-6q13 -39 13 -157v-76q-4 -8 -3.5 -15.5t-3.5 -25.5q-16 -66 -16 -78l-4 -21v-26z" />
    <glyph glyph-name="R" unicode="R" horiz-adv-x="778" 
d="M225 731q14 0 14 -16q1 -15 8 -27t14 -9q29 13 56 132q3 17 9 35t13 47t-7 49q-14 19 -39 31t-27 -4q-7 -108 -41 -238zM387 618q-10 -66 -22 -132t-23 -130q79 -23 159 88q81 111 115 336q8 53 18 117t-16 76q-44 22 -160 -208q-40 -77 -71 -147zM705 -12q2 6 6 6
t14 -14q-21 -122 -109 -166q-10 -10 -26 -20t-16 -33t-20 -36q-21 -13 -37 -3q-15 12 -15 26t-5 18t-9 10q-4 7 -16 9q-11 2 -16 14t-26 31q-75 68 -117 313q-2 2 -6 2q-27 -187 -39 -333q-5 -22 -15 -49q-3 -7 -8 4t-14 -3q-9 -13 -12 -1q-4 13 -6 12q-2 -2 -14 3t-35 5
t-61 3t-46 30q-22 84 26 270q11 48 25 144t62 288q47 192 69 319q34 209 23 250q10 32 23 44q12 12 18 -2q6 -15 16 -11t21 -12q23 -41 55 -97t31 -101q-2 -44 -6 -70q149 256 237 256q31 -3 55 -24q23 -21 30 -47q30 -110 31 -232q2 -213 -79 -400q-29 -61 -89 -123
t-128 -96q-4 -76 11 -140q29 -122 65 -122q36 -4 58 33q9 14 17 28t18 24q9 10 15 2q5 -7 7 -11t4 2q3 9 14 0q12 -8 19 0z" />
    <glyph glyph-name="S" unicode="S" horiz-adv-x="1124" 
d="M828 1081q-6 0 -9 -4q-47 -26 -106 -112q-60 -86 -95 -148q60 73 123 78q38 0 97 68.5t56 74.5t-8 8.5t-11.5 4.5t-6.5 8q-4 12 -18 8t-16 6q0 8 -6 8zM72 104q0 41 34 54q39 12 74 -2.5t76 -42.5q41 -20 211 -126.5t328 -39.5q21 21 32 58.5t6.5 66t-5.5 58.5t-7 51.5
t-21.5 30.5t-58.5 -6t-109.5 -24t-85.5 2q-19 10 -28.5 11.5t-16.5 0.5t-12.5 0t-11.5 7t-15 6t-21 19t0 114q11 94 37 172t89.5 219.5t173.5 279.5t217 134q40 -12 62 -34q23 -22 52.5 -41.5t31.5 -31.5t8 -24t18 -38.5t8 -54.5q-5 -28 -16.5 -67t-85 -219t-223.5 -186
q-26 -11 -26.5 -5.5t-6.5 18.5t6 16t12.5 7.5t-3 17.5t6.5 25q11 12 12 26t9 26t39 51t90.5 138t53.5 190q-294 -294 -316 -439t-10 -192q45 6 80 6t65.5 -7t45 -30t66 -68t42.5 -153q-11 -140 -162 -199q-10 -10 -20.5 -16.5t-17.5 -18.5t-6 -28.5t-19 -30.5
q-23 -12 -38.5 -1t-15.5 25.5t-5 17.5t-9 11q-4 4 -12 6t-15 9q-25 -3 -125 6q-100 10 -247.5 42.5t-249.5 86.5q-30 37 -10 26q6 -4 7 2.5t0 14.5t0 13t7 1t8 0t2 10t1 11.5t4 3.5t24 8q-8 8 -8 26z" />
    <glyph glyph-name="T" unicode="T" horiz-adv-x="987" 
d="M439 786l-52 -4q-40 -83 127 -83q38 1 56 4t57 30t63 43t46 52q20 36 27 47q7 12 14 20t15 16t15 19q-23 -8 -88 -45t-147 -66q-83 -29 -133 -33zM649 -201l31 189l10 57v8l6 31q4 10 5 18l12 45l2 7v2q4 10 6 17t6 15l8 33q4 7 5 15t3 14q3 6 5 21q2 14 4 16l2 14
l-9 -12q0 -2 -3 -2t-3 -11q-12 -15 -17 -34t-9 -32t-8 -32l-7 -20q0 -4 -2 -7t-4 -23l-14 -75q-4 -14 -5 -25q-1 -10 -3 -18t-3 -14t-3 -10l-19 -103q-4 -16 -4 -24l-6 -35q-2 -10 -2 -26t-2 -47q-2 -32 -16 -46q-13 -14 -13 -19q0 -6 -4 -22t-6 -28t-18 -15q-16 -2 -18 21
q-1 23 -3 39t-21 24t-22 14q-2 7 -10 15t-6 37q46 469 262 950q-279 -99 -503 -28q-85 28 -161 89q-67 74 -50 103t18 31t8 -3q6 -4 7 11q1 14 6 9t6 3t2 19t5 24t20 1q16 -13 25 -34q73 -154 265 -145q125 4 231 49q16 8 199 109t340 166q301 125 479 148q227 29 346 -61
q6 2 14 -1t10 -24q1 -21 5 -27t9 -10q5 -3 8 -6t5 -9q2 -5 3 -7t2 -2t1 -1t-3 -18t9 -36l-8 -4q-10 -10 -13 -15t-33 4q-83 25 -238 31t-394 -71q-127 -41 -276 -121q-12 -10 -26 -18q-14 -7 -32 -19t-41 -24q-51 -113 -130 -352q-79 -238 -104 -363l-37 -185t-7 -118h-8
q-6 0 -13 -6q-4 -8 -7 -21q-3 -12 -7 -8t-10 6t-8 14q0 6 -1 1q-3 -14 -7 -21q-5 -6 -7 -1t-3 8t-3 7v4z" />
    <glyph glyph-name="U" unicode="U" horiz-adv-x="995" 
d="M288 857q-23 15 -40 -42q-20 -50 -45 -121t-31 -88q22 7 27 -2q2 -10 3 -27.5t17 -19.5q8 -2 14.5 11.5t11.5 31.5t9 35.5t10 24t14.5 29t20.5 66t12 65.5t-23 37zM355 995q15 0 18 -12q10 -41 22.5 -82t13.5 -84t-29.5 -121.5t-98.5 -384.5q-47 -269 -31 -339t41 -70
q59 0 93 45.5t68 130.5q35 86 69 161.5t74 167t82 188.5t79 179t61.5 139.5t33.5 78.5t21 55q6 10 14.5 25t17.5 28.5t16.5 21.5t11.5 8t14 -1t20 1t10.5 -1t5.5 0t13.5 10.5t11.5 3.5t16 -4t15 -6.5t9.5 -10.5t8.5 -8t5 -2t9 2t-1 -18q-69 -173 -122 -450t-62 -404
q-10 -127 -13.5 -187.5t7.5 -120.5h-9q-15 0 -16.5 -21.5t-5.5 -17t-11.5 6.5t-9.5 12q0 6 -1 1t-2 -11t-3 -11t-8 3t-10 16t-2 -6q0 -16 1 -23.5t-7 -3.5q-10 2 -18.5 12.5t-15.5 -7.5t-17 -41t-34 -26t-38.5 6t-14.5 40q-8 248 33 516q-29 -84 -85.5 -263.5t-158.5 -265.5
q-8 -16 -21 -29t-13 -19.5t-5 -24.5t-6.5 -30.5t-23.5 -14.5q-27 0 -27 57q-2 16 -19.5 13t-31.5 1t-71.5 16t-122 138.5t-9.5 427.5q23 104 40 151q17 46 24.5 67.5t47.5 129.5t54 149t18.5 54.5t4.5 28.5q51 65 55 45q0 -15 15 -15z" />
    <glyph glyph-name="V" unicode="V" horiz-adv-x="690" 
d="M231 998v30q0 8 -13 30t-29 13q-15 -10 -21 -49q-22 -143 -37 -203q22 7 29 -2q4 -10 9 -27q5 -18 17 -20t16 11q6 24 7 54q2 31 8 39q14 18 14 124zM748 975q9 -5 5 -13q-3 -10 6 -18t5 -24q-26 -90 -136 -357t-147 -381q-77 -236 -73 -381q4 -48 -13 -60q-6 -5 -13 3
t-7 10h-2q0 -4 -2 -8t-8 5t-9 11q0 -5 -11 -19q-11 -13 -10 -19t-2 -24t-1 -32q2 -12 -20 -14t-27 24q-7 26 -11 41t-24 23q-43 16 -55 55q-4 4 -8 7q-49 66 -76 289q-6 51 -21 149t-5 282t39 332t40 213l2 55q26 40 35 47q8 8 12 -2q4 -18 23 -22t30 -23q18 -41 38 -82
q46 -92 31 -172q-45 -224 -49 -619q-1 -95 5 -169q8 29 40 167t49 193q18 55 133 264q115 210 185 281q8 8 14 7t10 2q5 3 3 -7q-2 -6 1 -5l6 2q9 2 9 -2t9 -9z" />
    <glyph glyph-name="W" unicode="W" horiz-adv-x="1087" 
d="M248 1028q0 8 -8.5 21.5t-18.5 19.5t-20.5 -1t-14.5 -40q-12 -45 -27 -117t-20 -92l13 4q10 4 14 -6t9.5 -27.5t21.5 -19.5q8 -2 12 11.5t8 49t9 41.5t9.5 29t7.5 48.5t4 48t1 30.5zM348 -246h-2l-4 -8t-6 4t-10 14q-14 2 -17.5 -2t-8.5 -9t-14 5t-11.5 -6t-8.5 -20
t-11 3t-7 19t-12 21l-9 4q-59 5 -74 39q-46 105 -73 381q-27 277 41 608q14 66 28.5 131.5t21.5 105.5t10 53t-1 27q16 29 30.5 42.5t18.5 2.5q4 -18 24.5 -22t32.5 -34t31 -71.5t27 -83.5t-2 -88t-19 -104q-22 -144 -30.5 -334.5t6.5 -349.5q10 82 34.5 171t38.5 143
t29 98.5t85 239t128 270.5q14 29 23 28q2 0 11.5 -1t19.5 1t12 -1t7 0t12.5 10t10.5 3t16 -5t15 -7q4 -4 11.5 -9t10.5 -8t7 -2t9 1t-10 -39q-50 -124 -84.5 -368t-14.5 -525q104 391 223 608t178 291q4 2 10 8q7 6 11 5t10 2t2 -7q0 -10 10 -3t8 -2t7.5 -9t5.5 -11t6 -19.5
t6 -24.5q-39 -113 -151.5 -367t-172.5 -414t-71 -299l2 -2h-2v-14q10 -88 -11 -113q-22 -24 -22 -25l-2 -38q-2 -37 -22.5 -39t-25.5 23.5t-9.5 42t-26.5 25t-31 17.5q-37 0 -47 47q-61 317 -41 654q-147 -426 -135 -615q0 -90 -29 -51q-2 0 -2 2z" />
    <glyph glyph-name="X" unicode="X" horiz-adv-x="817" 
d="M410 793q16 9 27 19q11 9 17 12q32 15 39 41q7 27 -2 80q-10 53 -18 76t-22 34q-15 10 -22 4t-8 -42t-3 -74q-2 -39 -4 -79t-4 -71zM98 77q0 56 301 445q-7 152 3 299t10 189v57q0 14 -4 29q13 37 23 51q11 14 17 2t26 -10t36 -24q18 -25 42 -61t37 -76t10 -88t-3 -76
v-38q0 -10 2 -20q152 134 276 225q125 91 144 103t26 11q6 -1 12 1t2 -6q-3 -8 0 -7q3 0 7 1t7 2t1 -3q-4 -10 6 -11t2 -11q-8 -9 -1 -19q13 -17 -59 -106q-134 -166 -235 -276q-100 -109 -172 -191q41 -382 166 -641q6 -20 10 -32t4 -18q-2 -7 -10 0t-10 1q-9 -52 -33 -76
q-20 -15 -20 -23t-5 -25t-6 -31q0 -14 -22 -15q-22 -3 -23 23t-3 42t-30 28t-34 36q-7 24 -10 28q-34 30 -66 126t-44 145t-24 96q-13 47 -26 117q-248 -303 -285 -440q-11 -45 -24 -53q-14 -9 -20 4t-15 17q-8 5 -13 36t-5 39q-27 38 -15 85q11 48 23 78q24 60 24 61z" />
    <glyph glyph-name="Y" unicode="Y" horiz-adv-x="1171" 
d="M325 856.5q-23 14.5 -40 -41.5q-20 -50 -45 -121t-31 -88q22 7 27 -2q2 -10 3 -27.5t17 -19.5q8 -2 14 11.5t11.5 31.5t9.5 35.5t10 24t14.5 29t20.5 66t12 65.5t-23 36.5zM651 -139q-451 -399 -418 -598q48 -54 121 -11t156 230q4 10 34 74.5t107 304.5zM394 995
q15 0 18 -12q10 -41 22 -82t14 -84t-16 -88t-30 -84t-21 -77t-21 -80t-21 -87t-21 -101q-25 -122 -29.5 -260t41.5 -138q61 0 103.5 36.5t101.5 141.5q59 115 195 510t147 444v4q9 70 30 73t27 10t18.5 4t15.5 2t7 4t9 -3t12.5 -2t16.5 10t15 3q6 -9 4 -53
q-10 -213 -55 -521q-45 -309 -49 -337.5t-8 -53.5q196 154 241 184l33 13q12 4 20.5 5t2 -7.5t-5.5 -10.5t5.5 -4t8.5 -4t2 -10t-1 -8h22q20 0 10 -10q-17 -17 -115.5 -83.5t-239.5 -175.5q-4 -10 -4 -19t-2 -13v-4q-55 -261 -129 -471l-2 -2v-5h-2q-107 -251 -246 -364
q-4 -4 -12 -24.5t-22 -34.5t-15.5 -22.5t-8.5 -32.5t-7.5 -40t-22.5 -18t-32.5 9.5t-10.5 66.5q-3 14 -31 14q-45 -6 -88 -4q-92 14 -135.5 87t17.5 214q88 199 538 586l26 76q25 77 70 350v12q6 19 13 68q-47 -143 -91 -271.5t-140 -305.5t-290 -95q-137 54 -154.5 223.5
t13.5 341.5q23 104 40 151q17 46 24 67.5t23 65.5t41.5 109.5t38.5 105.5t17.5 53t4.5 28q51 65 55 45q0 -15 15 -15z" />
    <glyph glyph-name="Z" unicode="Z" horiz-adv-x="968" 
d="M164 -711q76 61 180.5 214.5t175.5 392.5q6 14 7 18l12 35q-237 -207 -332 -307q-212 -240 -205 -379q34 -38 77.5 -26.5t84.5 52.5zM681 672q11 0 26.5 3t30 9t24.5 14.5t19.5 39t12.5 65.5t0 61.5t-17.5 26.5t-27 19.5t-22.5 36t-17.5 18.5t-11.5 -37t-18 -114
t-64 -175l25 25q23 24 26 16t14 -8zM1007.5 395q8.5 0 1.5 -8q-9 -10 0.5 -13t5.5 -13q-3 -9 5 -10t16 -1t12 -1t-4 -8t-29.5 -22.5t-57 -42t-85 -62.5t-104.5 -79v-2q-9 -135 -64 -318q-54 -182 -164.5 -366.5t-263.5 -263.5q0 -2 -9 -17.5t-13 -22.5t-12 -14t-14.5 -14.5
t-8.5 -13.5t-3 -12t-8 -25t-12.5 -35t-33.5 -20q-27 0 -27 13v65q2 10 -7.5 12t-37.5 -1t-70 -1q-122 20 -142 189.5t695 791.5q52 200 9 278q-2 2 -2 7v2q-157 -76 -218 -76q-22 0 -18 5l27 26q22 22 18 22t9 16.5t5 16.5q-4 2 -0.5 7t9 17.5t-1 15.5t13.5 23l20 21
q110 64 156.5 190.5t49.5 145t13 59.5q34 138 -14 145q-70 5 -183 -49t-222 -417q-10 -31 -15.5 -54.5t-16.5 -14.5t-7 20.5t0 15.5t-11.5 -4t-17.5 0t-10 18t-14 16t-7 43q77 259 234 424t335 80q62 -30 95 -108q63 -150 -29 -383v-4q-31 -79 -92 -140q16 -12 41 -49
t33 -91t8 -66q8 6 15.5 12t15.5 10q49 41 88 70.5t61 46.5q23 8 36 13t21.5 5z" />
    <glyph glyph-name="a" unicode="a" horiz-adv-x="520" 
d="M20 455q10 12 26 33t37 28q20 8 25 26t19 25q18 8 42 -3t36 -3q16 15 9 35t-15 28t-22 23t-31 15t-29 -15q-18 -33 -47 -83q-28 -50 -50 -109zM540 398q8 2 7 -4q0 -6 6 3t6 -3t-1 -15q-1 -5 -4 -19q-38 -186 -116 -284q-37 -47 -80 -46t-60 39q-34 76 -30 205
q-20 -44 -31 -65q-12 -22 -42 -85t-45 -83t-15 -23q-17 -10 -23 -28q-5 -18 -10 -35t-23 -34t-34 -3t-15 20t-4 9q-4 2 -14 2q-55 0 -82 58q-52 125 81 460q43 105 93 180q27 33 42 32q14 -1 30 8t26 -4t45 -33q34 -20 60 -42q53 -43 37 -76q-14 -20 -14 -40l-2 -10
q0 1 -14 -12t-19 -14q-6 -1 -4 15q2 15 -5 35q-8 20 -22 10q-28 -19 -83 -187q-56 -167 -48 -216q13 25 23 46t20 45q62 148 94 189q24 38 58 56q29 10 22 -60l-6 -173q0 -78 16 -102t33 -16q46 17 94 158q23 61 41 135q4 4 12 7z" />
    <glyph glyph-name="b" unicode="b" horiz-adv-x="679" 
d="M262 -20q41 63 64 163q-71 -85 -64 -163zM95 780q8 33 24 52q16 18 26 36t27 31t28 62q12 50 -11 54q-25 5 -27 -15q-5 -43 -8 -38q-18 26 -25 5q-56 -144 -84 -265q4 2 8 8q3 6 19 22q16 15 23 48zM748 393q37 0 47 -4t14 -2t20 2q11 0 7 -5t-9 -7q-164 -30 -309 -94
q-43 -161 -100 -263q-13 -31 -19 -44t-15 -32q-8 -20 -18 -26t-14 -6q-2 -24 2 -48t-4 -39q-14 -26 -23 -6q-9 21 -6 41q3 19 -4 40l-8 4h-2q-2 -2 -7 -4t-12 -10q-6 -8 -14 -6q-8 1 -11 5q-3 5 -7 7t-8 8q-56 25 -32 131t128 203q27 184 27 368q-63 0 -114 -170t-73 -373
l-4 -4q0 -5 -3 -19t-8 -42t-17 -25q-18 3 -20 17t-1 35v6q-4 2 -11 8t-17 -11t-79 -18q-70 0 -61 271q17 317 174 733q6 12 14 30q28 72 46 72q4 2 15 12t18 -3q6 -13 14 -10t16 7q0 -20 -11 -39q-11 -18 -12 -24t-5 -25q-4 -20 8 -14q15 7 24 48q8 40 12 50q6 -4 19 -6
q-2 -10 -3 -24t-4 -22q-3 -7 -24 -59t-32 -97q-11 -46 -26 -93t-20 -72q-2 -12 1 -6t13 34t22 63q14 34 26 78t21 64t19 63q9 42 15 69q25 -8 23 -29q-27 -109 -58 -221t-47 -201l-28 -157q-12 -68 -19 -140q29 135 63 195q34 59 65 91t87 38l8 2q10 0 33 1t44 -12t30 -36
t27 -40t20 -41q7 -86 2 -116q-6 -30 -7 -44t-4 -23t-3 -15t-2 -10q69 28 174 41h37z" />
    <glyph glyph-name="c" unicode="c" horiz-adv-x="415" 
d="M77.5 541.5q4.5 19.5 17.5 25.5q15 7 43 -3.5t40 0.5t3 31.5t-18 28.5t-31.5 34t-51.5 -11q-64 -132 -80 -192q34 52 54 59q19 8 23.5 27.5zM131 43v-20q0 -60 10 -69t21 -12q12 -3 47 42q84 91 137.5 216.5t63.5 161.5t12 42t4 14t4 -2t6 -6t9.5 -3t9.5 2t16 -14l4 -20
q-135 -418 -303 -484q-13 -10 -41 -10q-6 0 -4 -14t-10.5 -24.5t-20.5 0t-8 20.5t-8 13t-10 9q0 4 -2 6q-26 6 -31 11q-70 31 -96 121q-4 10 -6.5 21t-6.5 24l-2 38v15q0 241 123 491q34 68 55 68q16 -2 29 5t21 5t29.5 -1t66 -10t61.5 -67q25 -52 21 -102q0 -120 -66 -211
q-2 0 -6 -4t-4 0q-4 0 -4 4q-6 -4 -7 0t-3 4t-10 6t-9 12q0 5 9 19q36 54 36 133q0 20 -8 36.5t-22 6.5q-22 -16 -60.5 -165.5t-38.5 -193.5q0 -45 3 -64t0 -24.5t-7 -10.5t-4 -15z" />
    <glyph glyph-name="d" unicode="d" horiz-adv-x="577" 
d="M270 487q-11 43 -32 25q-20 -12 -59 -160.5t-27 -193.5q22 27 49 107t41 105t16 25zM79.5 541.5q4.5 19.5 18.5 25.5q16 7 44 -3.5t40 0.5t2 31.5t-18 28.5t-32 33t-52 -10q-60 -123 -78 -192q24 48 48 58q23 9 27.5 28.5zM389 166q0 -86 25 -86q71 40 106 136.5
t44.5 139.5t13.5 50t9 0t6 -3t7 -1t9 2t14 -7l4 -10q-29 -166 -88.5 -252t-92 -111.5t-53.5 -23.5h-6q-16 5 -25 -6q-2 -10 -18 -24t-32 4q-19 20 -22 45.5t-24 52.5q-24 0 -24 82v22q0 23 2 39q-4 -12 -9.5 -23.5t-14.5 -33.5t-21.5 -39t-30.5 -45.5t-47 -55.5
q-59 -42 -115 -13t-68 114q-11 86 21.5 240.5t112.5 287.5q22 33 37 32t30 8t26 -4t47 -32t52 -33t19.5 -16t7.5 -6q28 148 69 290t41 144t5 14t6 14l1 28q1 15 2 24.5t15 11.5q8 2 7 5t8 -2t14.5 1.5t11.5 8.5q2 -6 2 -13.5t-5 -20.5t-7 -19.5t-3 -11.5t-3 -11t-4 -25
t7 -13.5t19 47.5t10 60l23 -12q0 -32 -22 -83t-32 -107q-9 -56 -19.5 -100t-8.5 -66t3 -20.5t5 22.5q4 20 8.5 39.5t11.5 48.5t13 66.5t17 69.5t17.5 60.5t16.5 57.5q14 -8 12 -27q-23 -111 -49 -222.5t-57 -299.5t-37 -342v-47z" />
    <glyph glyph-name="e" unicode="e" horiz-adv-x="462" 
d="M0 455q24 48 48 58q24 9 28 29t18 25q17 7 44 -4t40 1q12 12 2 32t-18 28l-23 23q-33 35 -61 0q-54 -110 -78 -192zM268 467v4q0 16 -8 36q-9 19 -25 7t-32 -70q-17 -59 -29 -102t-20 -84q59 37 96 132q18 54 18 77zM-10 -39q0 4 -4 8q-51 40 -62 150q0 172 71 367
q43 121 89 184q8 10 21 9t29 8t26 -4q12 -13 48 -33q106 -57 109 -101q35 -35 22 -121q-17 -113 -158 -211q-24 -17 -32 -23t-10 -16q-33 -164 0 -164q2 0 4 2q108 46 223 218q44 67 69 120q26 52 29 62t5 0t6 -6q3 4 9 -3t10 2t16 -14l4 -20q-119 -235 -242 -345
q-89 -80 -176 -91h-20q-15 -3 -19 -15q-5 -12 -25 -17t-30 12t-11 27t-1 15z" />
    <glyph glyph-name="f" unicode="f" horiz-adv-x="432" 
d="M150 -406q123 357 73.5 478t-84.5 155q-71 -581 11 -633zM209 948q-37 -50 -57 -102q40 33 55 53q28 50 54 61t41 26t23.5 31.5t5.5 33t-18 10.5q-69 -50 -104 -113zM375 1030q-124 -213 -209 -604q164 308 195.5 441.5t13.5 162.5zM-98 -123q0 176 39 373q-41 10 -42 14
t-1 9t10 9t14 10.5t11 9.5t10 1h8l6 31l2 2q2 6 13.5 49t50.5 168.5t122.5 307t180.5 220.5l22 17q8 6 13.5 2t9.5 -6h4q22 15 30 7q7 -7 23 -9t20.5 -20.5t10.5 -35t2 -72.5q-8 -114 -115.5 -336.5t-179.5 -318.5q151 25 260 66q23 6 31 9t1 -5t-3 -8q4 2 3 -8.5t5 -8.5
q4 0 4 -6t-2 -12l-14 -17q-85 -31 -236 -63q112 -112 102 -295.5t-40.5 -287.5t-55.5 -125.5t-33 -39.5t-35 -38.5t-47 8.5q-10 10 -12 16t-15 16.5t-34 17.5q-21 6 -49 30t-39 39q-55 104 -55 280z" />
    <glyph glyph-name="g" unicode="g" horiz-adv-x="659" 
d="M-72 -795q8 -2 44 27t122.5 126t175 288t84.5 407q-124 -136 -178 -205q-203 -252 -239.5 -399t-30.5 -194.5t22 -49.5zM73.5 541.5q4.5 19.5 17.5 25.5q18 8 44 -3.5t38 -0.5q13 12 4 32.5t-17 28.5t-32 33t-52 -10q-60 -123 -78 -192q24 48 48 58q23 9 27.5 28.5z
M317 269q0 5 -2 7q-65 -169 -141.5 -249.5t-135.5 -77.5t-82.5 38.5t-33 105.5t26 238t114.5 316q21 33 37 32t31 8t27 -4t47 -32.5t63 -42.5q59 -43 43 -76q-8 -19 -8 -34q0 -16 -1 -15.5t-13 -12.5t-17.5 -14t-5.5 15t-8 35.5t-20 10.5t-26.5 -41t-43.5 -112.5t-45.5 -177
t12.5 -110.5q13 -9 35.5 27t37.5 66t42 81q27 52 48 104q20 52 24 60t5 17t5 13.5t8 7.5t8 3t7 4t7 0t5.5 -4t1.5 -2q12 4 16 -17q2 -2 3 -8t12.5 -65.5t23.5 -151.5q155 147 235 180q3 2 7 2t4 -2q-2 -4 1 -1t3 1t5 2t6 0t12.5 0t9.5 0q0 -2 9 1t19 6l20 6l9 2q0 -2 1 -5.5
t-12 -9.5t-99.5 -66.5t-221.5 -193.5q15 -172 12 -291l-2 2q-5 -204 -43.5 -316t-83.5 -182.5t-112 -121.5q-13 -13 -15 -66t-26 -59t-34.5 8t-12.5 25q-4 10 -14.5 10t-14.5 6q-57 -33 -89 -34t-45 -4t-17 2q-5 5 -21 5t-16 6q-232 137 15.5 482t434.5 532q-9 71 -26 123
h-3q-2 4 -2 9z" />
    <glyph glyph-name="h" unicode="h" horiz-adv-x="679" 
d="M92 846q43 36 55 53q11 19 25 37t46 30t44 40t9 44t-17 9q-63 -36 -104 -111q-35 -56 -58 -102zM334 1004q-79 -197 -131 -410l-6 -25v-6q90 161 127 331q12 59 10 110zM100 67q0 -7 -2 -18q0 -47 -33 -47h-10q10 -10 -2 -10q-54 -4 -71 51q-30 102 -23 227
q14 227 78 453q20 86 38 130q17 44 21 44t-1 -10t-3 -15q70 145 152 202q33 24 67 24v2q7 7 27 2q8 -4 16 -17q31 -10 31 -19t9 -52t-5 -129q-37 -226 -244 -535q-4 -24 -9 -48t-9 -50q97 190 187 258q34 24 50 22t19 -2q82 -16 112 -91q11 -29 4 -71q-28 -166 -29 -192
t-3 -64t20 -38q77 41 140 179q25 54 38 97t16 50t7 0t6 -3t8 -1t8 -1q6 8 17 -14q-64 -229 -186 -343q-33 -30 -58 -40q-8 -6 -10 -15t-16 -21t-32 -9q-17 5 -23 31t-13 34q-6 8 -14 19q-13 10 -23 18t-16 13q-45 14 -60 88q-13 91 19 241q2 10 -2 15t-22 -19
q-42 -56 -77 -124q-34 -68 -56 -110q-22 -41 -30 -63t-8 -29z" />
    <glyph glyph-name="i" unicode="i" horiz-adv-x="421" 
d="M186.5 909q10.5 4 15.5 13.5t1 19.5t-14.5 5t-15.5 -2t-11 -2t-19 -15t-41 -84q-4 -10 9.5 -1t17.5 21q6 12 26.5 26.5t31 18.5zM182 961q14 0 26 8q14 8 24 10t26 10h2q27 18 43 4q27 -23 -10 -104q-4 -12 -10.5 -23.5t-11.5 -20.5q-7 -13 -20 -28t-34 -51v-2
q-7 -18 -14 -25q-10 -25 -6 -35t4 -20t-13.5 -17.5t-31.5 -1.5t-13 27q-4 2 -13 5t-17 12q-62 34 -29 119.5t44 97.5t23 24t29 13v-2h2zM-39 182q0 167 92 393q13 43 19 53q6 9 17 7t20 2h12q12 -4 14 -13t6.5 -8.5t14.5 1.5q20 2 20 -48q-37 -143 -42 -214.5t-7 -116.5v-19
l2 -38q2 -38 -2 -62v-8q2 -20 4.5 -46t20.5 -32t49 30t98 103t95 151t29 88t3 4.5t3 -3t2 -6.5t3 0t8.5 -3t10.5 0q0 6 16 -10l4 -20q-85 -219 -178 -304.5t-151 -88.5t-84.5 4.5t-43 22.5t-24.5 36t-14 39t-8.5 28.5t-6.5 22.5l-2 39v16z" />
    <glyph glyph-name="j" unicode="j" horiz-adv-x="299" 
d="M-451 -795v7q31 10 36 15l44 44q154 171 308 747q-335 -365 -378.5 -540.5t-37.5 -223t22 -49.5h6zM86 631q31 -124 31 -141l-6 -91q-10 -61 0 -73l6 -2l10 4v2l4 39l4 32q0 14 -3.5 22.5t1.5 28.5q6 21 -5 87.5t-19 83.5q16 0 18 -9q6 -14 10 -55q23 -113 23 -242
q97 76 119 76q4 0 4 -3t3 0t3 1t5 2t5 0h23q0 -2 9 1t19 6l20 6l9 2v-4q0 -5 -11 -11q-74 -40 -208 -155q-10 -296 -73.5 -513.5t-125.5 -326.5q-59 -111 -143 -174q-13 -13 -15 -66t-26 -59t-35.5 8t-13.5 24.5t-12.5 10.5t-14.5 6q-57 -33 -89 -34t-36 -2t-15.5 -2
t-13.5 3t-18 4t-16 4v2q-124 74 -78.5 245.5t192.5 376.5t334 392v2q2 10 2 13v22q14 70 14 88v130q0 110 -2 124v14q-6 24 5 48q8 23 18 20q12 -4 16 -6t12 11t20 13q13 0 17 2q11 -44 11 -96q4 -23 4 -26.5t4 -3.5h2q4 6 4 36.5t-12 96.5q8 4 10 6zM41 889q33 25 38 66
t-10.5 40.5t-29.5 -16.5q-12 -18 -20.5 -16.5t-19.5 -8.5q-20 -17 -32 -114t33 -119q-20 70 -3 93t22.5 40.5t21.5 34.5zM6 975q12 0 28.5 20.5t23.5 24.5t22 18v2q22 27 53 19q16 -4 23.5 -38t4.5 -78t-5 -60q-2 -15 -10 -33t-10.5 -36.5t-6.5 -39.5q3 -19 -2 -35
q-4 -44 -19.5 -63.5t-23.5 -15.5t-20.5 3t-24.5 5q-82 13 -82 123.5t10 128.5q6 43 37 55h2z" />
    <glyph glyph-name="k" unicode="k" horiz-adv-x="688" 
d="M100 846q43 36 56 53q28 51 54 61q52 22 64 58q8 16 6 33q-3 16 -18 10q-66 -47 -104 -113q-39 -53 -58 -102zM344 1004q-79 -197 -131 -410l-6 -25v-1q91 163 127 326q12 59 10 110zM104 897q4 0 0 -10t-4 -15q68 140 154 202q33 24 68 24v2q6 6 26 2q6 -4 8 -8t6 -9
q31 -10 31 -19t9 -52t-4 -129q-33 -221 -242 -535q-12 -47 -19 -92q101 185 154 259q116 163 192 163q47 0 81 -44t41 -110t-19 -140q-41 -119 -185 -181q-51 -23 -87 -29t-40 -8q0 -4 14 -27q59 -93 109 -96q86 -10 176 105q56 69 104 214q9 30 12 36t8 0q5 -7 7 -3t7 -1
q7 -5 11 1q5 6 11 -8l2 -8q-20 -78 -53 -148q-113 -263 -227 -335q-13 -10 -27 -16t-28 -16q-14 -11 -30 -12q-17 -1 -31 6t-19 16t-13 18q-67 40 -106 143t0 190q12 29 28 52l19 18q8 10 19 21l26 26q224 236 143 226q-51 -6 -152 -160t-171 -320q-2 -10 -3 -20t-4 -36
t-17 -29q-13 -3 -26 -3q10 -10 0 -10q-54 -4 -72 51q-68 217 54 680q47 174 59 174z" />
    <glyph glyph-name="l" unicode="l" horiz-adv-x="434" 
d="M82 827q52 43 71 80q20 37 65 57q44 19 65 64q10 16 6 36q-6 32 -60 -13q-52 -52 -73 -89q-21 -36 -39 -66t-35 -69zM203 594l-35 -184v-2q51 94 110 300q59 205 56 296q-79 -197 -131 -410zM160 -66q16 0 47 34q93 103 169 287q26 60 42 124l10 24q2 6 3 7q2 0 3 -6
q2 -6 5 -4q3 3 9 -3t11 1q6 7 14 -11l4 -20q-116 -358 -266 -466q-33 -24 -70 -26q-11 -3 -14 -22q-2 -19 -5 -29t-12 -5t-8 21t-11 28q-11 11 -16 11t-14 6q-16 3 -26 11t-21 16q-50 54 -57 186q-6 132 4 203v4q19 241 100 504l18 40q41 97 117 184q40 46 85 61q4 2 6 4
t6 2q21 11 32 -4h5q2 0 5 4q17 22 32 4q6 -14 11 -20t6 -16q37 -412 -259 -865q-14 -88 -14 -175t40 -94h9z" />
    <glyph glyph-name="m" unicode="m" horiz-adv-x="712" 
d="M27 600q-9 0 -9 -11q-5 -120 -26 -241q10 5 33 45l45 80q32 14 32 47t-43 73q-10 9 -18 3q-6 4 -14 4zM-4 -143v-2q-6 -2 -8 5t-12 -2t-11 -2q-2 7 -15 4t-11 7q-1 4 -5 6t-14 8q-10 5 -10 13t6 55t15 119t36 273t27 259t5 70q12 27 40 8q2 0 2 -1t2 -1l4 -2q4 -4 15 -6
t18 -15t20 -26t13 -15q6 -6 18 -13q54 -31 35 -155v-8q-4 -37 -6 -76q43 94 81 97q39 4 63 -46t9 -151q24 49 59 67q36 17 68 11t42 -41q8 -35 10 -79t3 -85t15 -57q0 -2 4 -2h2q79 42 139 179q25 54 38 97t17 50t8 0q5 -7 6 -3t7 -1t11 1t12 -8l2 -8q-43 -161 -122 -267
t-132 -120v-2q-44 -11 -74 11q-52 37 -58 162q-1 22 -4 37t-17 -10q-37 -60 -42 -95q-14 -92 -24 -72q-3 8 -11 6t-8 6t-8 0t-8 -1t-2 8t-4 7t-3 5t-3 7t-6 11t8 81q12 79 12 148q0 70 -10 76q-18 9 -96 -218q-78 -226 -92 -253q-13 -27 -23 -33l-15 -14q6 29 10 60t7 50
q4 19 5 28t5 24t4 30v17q6 53 -4 55h-4v-4q-4 -25 -8 -63t-11 -86l-18 -97q-4 -12 -4 -18z" />
    <glyph glyph-name="n" unicode="n" horiz-adv-x="671" 
d="M137 605q0 21 -3 29t-9 3q-6 -4 -14 -15q-33 -46 -37 -32t-5 11t-21 -55t-40 -169q15 46 40 62t42 42q18 25 32 64t15 60zM399 -48q0 11 -34 32q-141 35 -66 261q23 69 43 127t29 95q8 37 -18 35q-47 -4 -99 -134q-52 -131 -82 -247q-30 -115 -44 -169t-19 -77v-8
q-2 -2 -3 -4v-2q-12 -30 -45 -4h-2q-4 4 -15 6t-17 12t-19 25t-16 20q-4 4 -9 6t-12 6v5q-8 0 -8 3t-6 7q-12 16 -19 48l1 99q4 120 51 329t86 232q6 12 15 15t16 7q8 5 10 -4t12 1t10 2q1 -6 15 -4t12 -7t13 -13t15 -14q0 -11 -8 -82q-10 -71 -17 -129t-15 -122
q110 324 252 327q85 2 94 -115q6 -74 -18 -239q-27 -193 -11 -208q6 -6 8 -7q78 42 139 182q25 54 38 97q12 43 16 50t9 0t7 -3t8 -2t9 2q4 8 12 -8l2 -8q-37 -141 -99 -235t-114 -132q-12 -14 -28 -17t-12 -19q3 -16 -7 -33q-11 -15 -29 -15t-24 12t-7 18z" />
    <glyph glyph-name="o" unicode="o" horiz-adv-x="479" 
d="M29 389q34 59 79 84q46 23 58 45q29 52 30 77t2 39q4 54 -14 37t-29 -15t-21 -9q-10 -10 -16 -21t-20 -41t-24 -59q-10 -28 -22 -62t-23 -75zM229 437l23 12h4q14 0 39 -4t108 20q84 24 117 59h6q11 11 13 0q-2 -6 -3 -7q0 -1 -4 -8t-27 -34t-76 -56q-54 -29 -99 -40
q21 -95 -19 -211q-57 -180 -174 -229q-11 -19 -29 -17t-21 -3q-12 -20 -35 -17q-23 4 -25 19t-13 32q-74 83 -51 272q15 114 60 240q45 127 77 197q13 26 27 26q15 0 29 15t28 8q12 -9 26 -23t30 -15t28 5t16 -3q10 -27 6 -38q-2 -12 -20 -55q-138 -340 -142 -476
q-1 -41 22 -40q45 -4 91 100t19 168q-8 19 -25 28q-16 9 -22 13q-15 10 11 51q5 8 5 11z" />
    <glyph glyph-name="p" unicode="p" horiz-adv-x="624" 
d="M211 76q29 45 49 106q-63 -58 -49 -106zM121 624q0 30 -29 27q-29 -5 -38 -29q-17 -47 -22 -67q-5 -21 -10 -37t-8 -33q6 11 12 13t11 10q4 8 16 8t27 8q24 20 53 68q6 10 -3 16t-9 16zM680 393q33 0 46 -4q14 -4 18 -2t20 2q20 0 -4 -12q-167 -31 -305 -84
q-56 -180 -119 -248q-16 -27 -29 -34q-12 -7 -18 -15t-27 2q-8 -4 -14 -5t-12 -7t-14 -5q-7 1 -10 5t-7 6t-8 8q-27 10 -36 39t0 65q21 83 120 160q31 159 24 342q-79 0 -143 -272q-27 -119 -45 -271l-4 -4q-7 -66 -19 -79q-14 -164 -18 -333t24 -331q7 -67 -39 -45h-2
l-19 4q-12 0 -20 9q-8 10 -17 16l-26 22q-16 6 -26 14v28q0 11 -2 24l-2 32l-2 52q-5 63 -2 100v78q0 8 -4 12h-7l-2 -2q-9 -107 -4 -145q4 -39 4 -53t1 -32t2 -40t6 -43q-36 39 -41 139v8q-25 243 36 639q32 218 61 316t44 150t51 89q5 5 14 7q8 1 14 4t7 -4q0 -7 12 -1
t13 0q0 -6 13 -5t11 -6q-2 -9 13 -16q15 -8 13 -21t-5 -26q-2 -13 -5 -28q52 83 132 94l10 2q10 0 32 1t44 -12t30 -33q6 -20 16 -30t19 -20q10 -10 11 -34t3 -62t-6 -68q0 -47 -10 -72q101 26 172 35h37z" />
    <glyph glyph-name="q" unicode="q" horiz-adv-x="573" 
d="M6 455q34 52 54 59q20 8 24 28q9 37 41 28q10 -3 28 -10t31 4q12 12 3 32t-18 28t-22 23t-30 15q-18 0 -31 -15q-59 -121 -80 -192zM301 -725q-10 0 -18 9q-9 10 -17 16t-14 12t-8 7q-56 28 -68 72t-14 95l-2 8q-22 254 28 578q-50 -100 -94 -114q-90 -28 -137 40
q-56 87 -1 330t135 342q9 10 23 9t28 8t26 -4t47 -33q128 -71 107 -118q-11 -19 -11 -35q0 -15 -1 -15t-11 -13q-12 -12 -18 -13t-7 15q0 15 -7 35t-27 7t-61 -181q-42 -168 -32 -219q10 25 23 57t26 67t21 61q9 26 15 41t10 36q4 2 7 8t17 24q14 19 15 26q0 7 10 11t14 8
t9 3q5 -2 5 -3t3 -1h2q10 -2 16 -19q4 -4 9 -5t8 -6t11 0t14 11q18 15 21 4t-14 -111q-16 -99 -10 -118q-17 -125 -13 -132q5 -7 15 -1q78 40 139 179q25 54 38 97t16 50q2 7 8 0t8 -3t7 -1t8 -1q7 10 16 -14q-48 -176 -134 -285q-87 -109 -133 -102h-2q-35 -414 10 -678
q4 -39 -7 -47t-29 2h-4q-11 4 -21 4z" />
    <glyph glyph-name="r" unicode="r" horiz-adv-x="548" 
d="M41 618q-8 0 -8 -12q0 -104 -25 -241q4 2 9 9t18 23t23 52q10 35 26 43q31 12 33 35t-23 60q-25 36 -39 27q-6 4 -14 4zM305 186q0 8 -7 1t-7 -1t-3 8t-5 8q-2 5 -3 5t-4 8q-2 8 -5 10t10 59t18 143q4 85 -6 91q-23 12 -123 -292q-25 -73 -43 -122q-41 -178 -78 -223
q-4 -14 -2 -26t-8 -31q-10 -25 -27 -15t-13 29q3 19 -1 23q-4 0 -7 -3t-7 -3q6 10 -17 6v-2q-14 0 -14 6t-4 8t-9 5t-11 6q-5 3 -5 14t42 324q42 312 42 417q0 39 20 47q9 4 18 -2t9 -7t2 -1l4 -2q3 -4 15 -6t18 -14t19 -26q14 -14 14 -16q6 -6 18 -13q54 -31 35 -155v-8
q0 -6 -1 -12t-1 -10q56 176 118 183q26 3 64 -24t56 -81q4 -8 16 -58t2 -132q-10 -83 -30 -119q-20 -37 -33 -31q-12 6 -13 17q0 11 -14 15l-4 -8q-8 -8 -14 -4t-7 12q-14 0 -14 2z" />
    <glyph glyph-name="s" unicode="s" horiz-adv-x="446" 
d="M150 80q-81 -81 -76 -135q0 -30 20 -44q20 -13 23 -24l10 -10q15 -8 35 31q35 69 39 112q3 44 -13 56t-38 14zM12 463q62 52 87 105q7 16 13 28q22 43 101 50q31 2 32 18q2 24 -17 38q-19 13 -23 17q-25 6 -47 -19q-16 -14 -27 -18q-2 -2 -15 -24t-47 -78t-57 -117z
M221 323q0 18 15 58q-5 46 8 81q12 35 18 60t-3 19q-28 -19 -115 -163t-72 -222q16 2 40 8t58 8q82 65 201 119q66 22 79 21q13 0 16 4t17 8q10 0 9 -7q-2 -4 -7 -8q-148 -77 -254 -157q35 -25 49 -63t21 -82q9 -44 -17 -89t-45 -60q-19 -14 -37 -10t-20 -1q0 -5 -16 -21
t-60 -11t-61 48q-23 31 -18 90q4 59 53 127q-18 0 -28 -6q-41 -23 -60 -8q-8 4 -12 8q-90 26 -65 171q18 103 88 247q70 143 106 186q35 37 69 54q34 16 43 30t17 13t15 -5t14 -9t15 -2t10 -9q1 -12 14 -35t11 -31t9 -17q16 -12 30 -100q0 -135 -64 -231q-16 -25 -24 -40
q-8 -14 -12 -20q-6 -9 -8 -5q-2 5 -14 19q-13 15 -13 33z" />
    <glyph glyph-name="t" unicode="t" horiz-adv-x="401" 
d="M178 807q-8 0 -23 12.5t-24 -0.5q-10 -25 -21 -59t-27.5 -79.5t-33.5 -105.5l37 37q16 16 22.5 32t20.5 31t26.5 22t22.5 31t13.5 51.5t-13.5 27.5zM104 -66h17q14 0 48 34q63 63 132.5 179t114.5 232l14 24q2 6 4 6.5t2 -3t1 -6.5t3 0t8.5 -3t12.5 1t14 -11v-20
q-130 -313 -215.5 -389t-118.5 -91q-11 -18 -29 -18t-20 -3t-8 -16q-8 -12 -25.5 -13t-19.5 16q0 16 -8 19.5t-15 10.5q-64 24 -75 117t22 264v2q6 32 8 35v6q82 347 156 527q-233 -19 -379 -56q-20 -4 -33 -4q-31 0 -16 25v4q2 4 1 12t7 14q6 6 12.5 13.5t12.5 12.5t6 6
t2 6t21.5 11.5t57 8.5t99.5 16q63 14 258 39q20 47 50 88t83 49q4 0 21 10t30 15q12 6 23.5 4t17.5 0h7q37 6 32 -21q-2 -12 -26 -56t-39 -73q228 13 324 13t190 -6q170 0 192 -43q0 -6 3 -10.5t-5 -8.5q-10 -2 -2 -10t0 -10t-6 -13.5t-8 -9.5q-10 0 -15.5 -14.5
t-19.5 -14.5q-80 -2 -317.5 10t-386.5 1q-65 -158 -125 -357q-60 -200 -79.5 -292.5t-37.5 -184.5q-6 -45 7 -59.5t15 -14.5z" />
    <glyph glyph-name="u" unicode="u" horiz-adv-x="675" 
d="M-4 316.5q0 -11.5 -2 -18.5t-2 -11q4 16 22.5 36.5t28.5 20.5q16 0 29.5 34t22.5 42t8 14t-4 10.5t-8 9.5t-8 13t-15.5 4t-15.5 -1t-7 2t-6 -1q-21 -34 -32 -88q-11 -55 -11 -66.5zM412 -37q-10 0 -16 6t-7 8q-29 11 -39 62q-4 12 -4 15v108q-83 -212 -156.5 -252
t-88.5 -38.5t-31 1.5t-50 14q-33 14 -59 58q-22 45 -22 127q0 2 2 2v20q4 122 39.5 263.5t70.5 164.5q6 11 16 15q11 4 17 8t8 -6q0 -8 10.5 2t12.5 3t15 -5t11 -7q0 -6 9.5 -10t14.5 -8t5 -17.5t-22.5 -192t-22.5 -269.5t18 -84q87 30 157 241t95 317t74 150q13 15 17 15
q5 0 10.5 3t3.5 -5q0 -8 9 -1t9 1q-2 -6 9 -5t7 -9t7.5 -13.5t7.5 -17.5q-66 -304 -72 -498v-33q0 -34 19 -24q65 43 108 138t56.5 135t16.5 47t7 0t6 -3t7.5 -2t9.5 2t12 -8l2 -8q-37 -141 -105 -244t-131 -139q-14 -10 -26 -18.5t-15 -8.5h-32z" />
    <glyph glyph-name="v" unicode="v" horiz-adv-x="446" 
d="M20 522l-14 -88q2 -16 7 -14t9 -9q7 -21 12 -28q5 -6 7 -10q0 43 22 93t33 62q6 10 5 27t1 30t-8 14t-16 7q-20 20 -37 -4t-21 -80zM406 567q8 0 4 -9t2 -14t0 -18q-74 -152 -145 -318t-99 -337q-13 -65 -29 -37q-2 0 -4 3t-7 5t-7 13v4q-13 13 -15 2q0 -8 -5 -5t-13 5
t-16 18q-47 52 -67 180q-5 33 -15 93q-31 186 -2 348v8q8 55 26 100t78 58q4 2 8 6t19 10q16 8 26 15q11 7 25 5t18 0h9q31 8 37 -12t-3 -41q-69 -175 -69 -448q67 172 129 274q45 81 82 100l10 5q4 0 8 2t0 -6t5 -3q9 6 7 0q-5 -6 3 -6z" />
    <glyph glyph-name="w" unicode="w" horiz-adv-x="718" 
d="M115 581.5q2 12.5 -8.5 14.5t-16.5 7q-22 19 -35 0q-12 -19 -19 -42.5t-20 -58.5t-10 -58q4 -24 14.5 -25t14.5 -15t10 -22q6 -7 8 -11q1 75 57 157q6 8 4.5 24.5t0.5 29zM221 664h6q31 4 34 -17.5t-15 -53.5q-92 -159 -100 -416q-2 -75 3 -105.5t11 -20.5
q91 165 151 406q17 82 58 147l6 6q4 2 5 4t5 3t9 3.5t5 -6t9.5 0t7.5 -0.5q0 -6 10 -5t6 -7q-4 -10 7.5 -14t7.5 -26q-8 -46 -10 -79t-17 -143q-16 -110 -19 -211v-33q70 141 113 296t78 300q4 14 12 14.5t10 10.5t7.5 5t7.5 3q4 6 6 -4t4 -2q4 8 5 4t4 -6t3 -5.5t5 -21.5
q11 -37 -5.5 -128.5t-26.5 -123.5t-28 -105t-44 -131t-26 -58.5t-15 -38.5t-37 -60q-23 -22 -31.5 -30.5t-27.5 -21.5l-22 -15q-22 -15 -51 -15t-29 14q-27 10 -39 62q-4 12 -4 15v59l-2 37v12q-55 -150 -73.5 -178.5t-30.5 -32.5t-28 -8t-24 -3t-24 1t-47 14q-16 8 -21 27
q-40 62 -40 237q0 59 -3 134.5t31 185.5q15 59 41.5 103t87.5 48l10 2q12 6 24.5 10.5t22.5 9.5t20.5 -10.5t2.5 -35.5q0 -2 2 -1t2 -1z" />
    <glyph glyph-name="x" unicode="x" horiz-adv-x="464" 
d="M51 664.5q0 15.5 -9 9.5t-19.5 -17.5t-10.5 5.5q-4 -10 -13.5 -30t-14 -76.5t-3.5 -68.5q1 -17 10.5 12t22.5 46t18 33t8 29.5t7 27.5t4 29.5zM-29 596q0 36 47 88q6 11 16 17q11 5 16 8.5t7 -4.5q4 -8 12.5 2t11.5 4t15.5 -2t12.5 -4t15 -13t15 -12q2 -27 3 -53.5
t3 -53.5q44 41 70 54q37 27 79 46t89 -7q7 0 24 -4.5t27 -6.5t15.5 -9t9.5 -9l4 -4q24 -15 0 -29q-9 -8 -57 -24t-118.5 -61.5t-131.5 -104.5q19 -239 88 -396q2 -2 4 -2h2q110 59 215 373q4 10 9 3t7 -3t7.5 -2t9.5 2t12 -8l2 -10q-43 -163 -112.5 -266t-107.5 -138
t-61 -33q-10 -12 -29 -11t-26 24l-39 18q-57 8 -88 63t-59 181q-65 -107 -92 -209q-4 -14 -15.5 -13t-13.5 -9.5t-8.5 -5.5t-10.5 0q-5 -8 -9 2.5t-7 2.5q-4 -8 -7 -4.5t-7 7.5t-11.5 33t8 77.5t41 99t52.5 89.5t35 51t14 20t12 19v227z" />
    <glyph glyph-name="y" unicode="y" horiz-adv-x="745" 
d="M-59 -834q66 26 69 29q66 43 134.5 171t135.5 306.5t76 327.5q-35 -39 -85 -91t-128 -148t-136 -214t-79.5 -201t-14.5 -130t21 -50h7zM101.5 428q3.5 8 15.5 22t6 25t-9 17t-8.5 5t-10.5 -3t-9 -4.5t-6 2.5l-6 10q-34 -26 -68 -144q-13 -46 -0.5 -21t15.5 33q9 23 33 25
t30 7.5t10 11.5t7.5 14zM762 393h22q-7 -7 21 4l24 6l13 5q-2 -2 -1.5 -5.5t-7.5 -8.5t-15 -8t-16 -10t-28.5 -18.5t-42 -26t-44 -28.5t-39.5 -26t-43 -33t-54 -45q0 -49 -4 -85t-5 -55.5t-9 -97.5q-17 -169 -72.5 -338t-94.5 -242q-68 -128 -157 -194v-2q-31 -29 -70 -50.5
t-45 -25.5q-9 -18 -26 -22q-16 -6 -15.5 -18.5t-16 -16.5t-16.5 -6t-9 -16q-13 -22 -30.5 -13t-16.5 24t-8 19t-25.5 8t-23.5 12.5t-11 10.5q-217 146 35.5 491.5t422.5 515.5v20q0 20 4 38q-49 -86 -110 -123.5t-102 -47.5t-44 -10h-20q-29 0 -59 15q-79 44 -80.5 110
t0.5 76v2q0 8 2 12v9q6 176 55 243.5t68 79.5q6 11 16 15t16 8t6 -6q2 -8 12.5 2t12.5 3t14.5 -4t10.5 -8q0 -10 15 -12t15 -14t-29.5 -118t-29.5 -265q0 -75 18 -68q56 18 117.5 112t106.5 210v8l2 35l-11 166v14l-2 23q2 14 7 24q8 23 18 21q12 -4 16.5 -6t10.5 8t13 12
t9 1t6 -1t10.5 -9t13.5 -21.5t12 -24t21 -24.5q26 -21 32 -65q5 -44 13 -80t13 -179q102 79 184 112q2 2 5 2t3 -2h5q2 2 2 0t5 2t5 0z" />
    <glyph glyph-name="z" unicode="z" horiz-adv-x="714" 
d="M-98 -834q66 26 69 29q66 43 134.5 171t135.5 306.5t76 327.5q-10 -10 -22 -25q-329 -329 -378.5 -520.5t-42.5 -238.5t22 -50h6zM307 595q0 -15 -4 -33t-10 -48q-6 -31 -17 -59q23 4 30.5 26.5t21.5 33.5t28.5 19.5t23 56.5t-7.5 56q-15 8 -20.5 -4t-14.5 -13t-15.5 3
t-10.5 5t-6 -1t0 -14.5t2 -27.5zM713 391q0 -2 5 2t5 0h22q-7 -7 21 4l25 6l12 5q-2 -2 -1.5 -5.5t-7.5 -8.5l-24 -15t-35.5 -22.5t-42 -26t-44 -27.5t-39.5 -26t-42.5 -33t-44.5 -37q-31 -25 -73 -70q44 -100 34 -215q-4 -20 -4 -36.5t-10 -71.5q-48 -261 -154 -453
q-55 -109 -143 -174q-12 -12 -16 -15q-4 -2 -11 -14q-41 -67 -96 -73q-30 -5 -37 -5q-12 -12 -25.5 -12t-23 1t-29.5 -2t-40.5 5t-24.5 13h-2q-123 73 -67 285t244.5 429t270.5 299v13q-13 87 -67 143h-4q-8 -2 -13.5 -5t-7.5 7q0 8 -11 -1t-13 -1q0 8 -13.5 6t-9.5 8
q2 10 -13.5 12.5t-12.5 18.5q0 6 52 40t81 179q22 149 -2 144q-76 -15 -147 -123.5t-90 -145.5t-28.5 -49t-17.5 -1t-3 18.5t1 7.5q-6 -2 -6 17t-6 13q-5 73 80 191q92 129 255 145l46 -4q55 -14 82.5 -52.5t29.5 -87.5t-6 -71v-2l-4 -18q-12 -86 -53.5 -130t-65.5 -58
t-37 -21q4 -4 9.5 -6t9.5 -6q49 -33 86 -84q91 82 167 131.5t115 64.5h15z" />
    </font>
</defs>
</svg>
