<?xml version="1.0" encoding="utf-8"?>
<!-- Generator: Adobe Illustrator 21.1.0, SVG Export Plug-In . SVG Version: 6.00 Build 0)  -->
<svg version="1.1" id="Layer_1" xmlns="http://www.w3.org/2000/svg" xmlns:xlink="http://www.w3.org/1999/xlink" x="0px" y="0px"
	 viewBox="0 0 469.6 130.3" style="enable-background:new 0 0 469.6 130.3;" xml:space="preserve">
<g>
	<g>
		<path id="Rdio_3_" style="fill:#FFFFFF;" d="M102.8,62c0.8,2.2,1.4,4.5,1.9,6.8c5.6,27.5-13,54.6-41.6,60.4
			C34.5,135.1,6.7,117.5,1,90c-5.6-27.5,13-54.6,41.6-60.4c5.6-1.2,11.2-1.4,16.6-0.9l6.2,30.1c0,0-17.2-5.3-29,7.5
			c-11.8,12.8-7,22.6-7,22.6s4,16.3,23.5,12.3c21.8-4.5,23.9-25.6,23.9-25.6l-9.3-45.4c4.6,1.2,9.1,3,13.4,5.2
			c10.4,3.8,20.8,5.6,31.8,3c0,0,2-0.9,2.9,3.3c0.5,2.3,0.2,5-1.6,8C114,49.7,111,57.1,102.8,62"/>
	</g>
	<path style="fill:#07E6A5;" d="M58.6,18.8c-0.1,1.2-0.9,2.2-2,2.7c-0.5,0.2-1.1,0.3-1.7,0.3c-10.2-1.2-20,2.2-26.3,5.2
		C21.5,30.3,16.8,34,16.8,34c-1.5,1.2-3.6,0.9-4.8-0.5s-1-3.6,0.5-4.8c0.2-0.2,5.2-4.2,12.9-7.9c4.6-2.2,9.2-3.8,13.6-4.8
		c5.7-1.3,11.3-1.7,16.5-1C57.5,15.2,58.8,16.9,58.6,18.8z M57.6,8.3c-0.7,0.3-1.4,0.4-2.1,0.3C31.1,5.8,9,23.5,8.8,23.6
		C7,25.1,4.4,24.8,2.9,23c-1.4-1.8-1.2-4.4,0.6-5.8c0.3-0.2,6.4-5.1,15.8-9.6C25,4.9,30.6,2.9,36.1,1.6c7-1.6,13.8-2,20.3-1.3
		c2.3,0.3,3.9,2.3,3.6,4.6C59.9,6.5,58.9,7.7,57.6,8.3z"/>
	<g>
		<path style="fill:#FFFFFF;" d="M156.1,87.8h-5.4v-8.2c-2.4,5.6-7.2,8.3-13.7,8.4c-8.4,0-13.5-5.4-13.5-14.1V51.6h5.4v20.9
			c0,6.4,3.8,10.2,10,10.2c7.5-0.1,11.9-5.6,11.9-13.3V51.6h5.4V87.8z"/>
		<path style="fill:#FFFFFF;" d="M195.3,73.7c0,8.4-5.5,14.2-13.5,14.2c-5.1,0-8.9-2.3-11-6.2v6.1h-4.2V47.9h4.2v17.7
			c2.1-4,6-6.3,10.9-6.3C189.7,59.3,195.3,65.2,195.3,73.7z M191.1,73.6c0-6.1-4.2-10.5-10.1-10.5c-6,0-10.2,4.4-10.2,10.5
			c0,6.2,4.2,10.5,10.2,10.5C186.9,84.1,191.1,79.7,191.1,73.6z"/>
		<path style="fill:#FFFFFF;" d="M206.4,51.3c0,1.7-1.2,2.9-2.7,2.9c-1.6,0-2.7-1.2-2.7-2.9s1.2-2.9,2.7-2.9
			C205.2,48.4,206.4,49.7,206.4,51.3z M201.6,87.8V59.4h4.1v28.3H201.6z"/>
		<path style="fill:#07E6A5;" d="M229.9,50.2c9.6,0,15.2,4.7,15.2,13.1c0,8.8-5.5,13.9-15.2,13.9h-6.8v10.6h-9.6V50.2H229.9z
			 M223.1,69.7h6.3c4.2,0,6.6-2.1,6.6-6.1c0-3.9-2.4-5.9-6.6-5.9h-6.3V69.7z"/>
		<path style="fill:#07E6A5;" d="M249.2,87.8V47.9h9.3v39.9H249.2z"/>
		<path style="fill:#07E6A5;" d="M290.7,68.9v18.9h-9.1v-3.3c-1.9,2.5-4.9,3.8-8.9,3.8c-6.2,0-9.9-3.8-9.9-9.1
			c0-5.5,3.9-8.7,11.1-8.8h7.6v-0.4c0-2.8-1.9-4.6-5.6-4.6c-2.4,0-5.6,0.9-8.7,2.4l-2.6-6.1c4.5-2.1,8.6-3.3,13.4-3.3
			C286.1,58.4,290.7,62.3,290.7,68.9z M281.6,77.9v-2.6h-5.9c-2.8,0-4.2,1-4.2,3.1c0,2.1,1.5,3.4,4.1,3.4
			C278.5,81.9,281,80.3,281.6,77.9z"/>
		<path style="fill:#07E6A5;" d="M311.2,90.8c-2.1,5.3-5.8,7.8-11.2,7.8c-3.2,0-5.9-1-8.4-3l3.9-6.3c1.3,1.1,2.5,1.6,3.8,1.6
			c1.7,0,2.8-0.8,3.6-2.3l0.7-1.5l-12-28.3h9.6l7.1,19.2l6.3-19.2h9.2L311.2,90.8z"/>
		<path style="fill:#FFFFFF;" d="M357.7,55.5l-2.6,3.3c-2.9-3-7-4.7-11.1-4.7c-8.5,0-15.3,6.6-15.3,14.8c0,8.2,6.8,14.8,15.3,14.8
			c4.1,0,8.2-1.7,11.1-4.5l2.6,3c-3.7,3.5-8.8,5.8-14,5.8c-10.9,0-19.4-8.4-19.4-19.1c0-10.5,8.7-18.9,19.6-18.9
			C349.1,50,354.1,52.1,357.7,55.5z"/>
		<path style="fill:#FFFFFF;" d="M364.1,87.8V47.9h4.2v39.9H364.1z"/>
		<path style="fill:#FFFFFF;" d="M403.6,73.6c0,8.5-6,14.3-14.3,14.3c-8.4,0-14.3-5.9-14.3-14.3c0-8.4,6-14.2,14.3-14.2
			C397.6,59.3,403.6,65.1,403.6,73.6z M379.1,73.6c0,6.2,4.2,10.5,10.2,10.5s10.2-4.3,10.2-10.5c0-6.2-4.2-10.5-10.2-10.5
			S379.1,67.5,379.1,73.6z"/>
		<path style="fill:#FFFFFF;" d="M434.4,87.8h-4.2v-6.4c-1.9,4.4-5.6,6.5-10.7,6.6c-6.6,0-10.6-4.2-10.6-11V59.4h4.2v16.3
			c0,5,3,8,7.8,8c5.9-0.1,9.3-4.4,9.3-10.4V59.4h4.2V87.8z"/>
		<path style="fill:#FFFFFF;" d="M469.6,87.8h-4.2v-6.1c-2.1,4-6,6.3-11,6.3c-8.1,0-13.6-6-13.6-14.4c0-8.5,5.6-14.3,13.6-14.3
			c5.1,0,9,2.3,11.1,6.3V47.9h4.2V87.8z M465.4,73.7c0-6.2-4.2-10.6-10.2-10.6c-6,0-10.3,4.5-10.3,10.6c0,6.1,4.2,10.5,10.3,10.5
			C461.1,84.2,465.4,79.8,465.4,73.7z"/>
	</g>
	<g>
		<path style="fill:#FFFFFF;" d="M125.5,104.1c-0.7,1-1.9,1.5-3.3,1.5c-1.9,0-3.1-1.2-3.1-2.8c0-1.6,1.3-2.6,3.4-2.6h3v-0.5
			c0-1.3-0.8-2.1-2.4-2.1c-1,0-1.9,0.4-2.9,1l-0.6-1c1.2-0.8,2.2-1.2,3.7-1.2c2.2,0,3.5,1.2,3.5,3.1l0,6h-1.3V104.1z M125.5,102.3
			v-1.1h-2.8c-1.5,0-2.3,0.5-2.3,1.5s0.8,1.7,2.1,1.7C123.9,104.4,125.1,103.6,125.5,102.3z"/>
		<path style="fill:#FFFFFF;" d="M142.9,105.5l-1.8-5.9l-1.8,5.9h-3l-3.4-9.3h3l1.9,6.5l1.9-6.5h2.9l1.9,6.5l1.9-6.5h2.9l-3.4,9.3
			H142.9z"/>
		<path style="fill:#FFFFFF;" d="M158.3,99.4v6.1h-2.9v-1.1c-0.6,0.8-1.6,1.2-2.9,1.2c-2,0-3.2-1.2-3.2-2.9c0-1.8,1.3-2.8,3.6-2.8
			h2.5v-0.1c0-0.9-0.6-1.5-1.8-1.5c-0.8,0-1.8,0.3-2.8,0.8l-0.8-2c1.5-0.7,2.8-1.1,4.3-1.1C156.8,96,158.2,97.3,158.3,99.4z
			 M155.3,102.3v-0.8h-1.9c-0.9,0-1.3,0.3-1.3,1c0,0.7,0.5,1.1,1.3,1.1C154.3,103.6,155.1,103.1,155.3,102.3z"/>
		<path style="fill:#FFFFFF;" d="M165.2,106.5c-0.7,1.7-1.9,2.5-3.6,2.5c-1,0-1.9-0.3-2.7-1l1.2-2c0.4,0.3,0.8,0.5,1.2,0.5
			c0.5,0,0.9-0.2,1.2-0.7l0.2-0.5l-3.9-9.1h3.1l2.3,6.2l2-6.2h3L165.2,106.5z"/>
		<path style="fill:#FFFFFF;" d="M179.5,104.9c-0.6,0.4-1.3,0.7-2.1,0.7c-1.3,0-2.3-0.8-2.3-2.6v-5.2h-1.3v-1.1h1.3v-2.4h1.3v2.4
			l2.9,0v1.1h-2.9v5c0,1.1,0.4,1.5,1.2,1.5c0.5,0,1-0.2,1.5-0.5L179.5,104.9z"/>
		<path style="fill:#FFFFFF;" d="M189.7,100.9c0,2.7-1.9,4.6-4.6,4.6s-4.6-1.9-4.6-4.6c0-2.7,1.9-4.6,4.6-4.6
			S189.7,98.2,189.7,100.9z M181.8,100.9c0,2,1.4,3.4,3.3,3.4s3.3-1.4,3.3-3.4c0-2-1.4-3.4-3.3-3.4S181.8,98.9,181.8,100.9z"/>
		<path style="fill:#FFFFFF;" d="M205.2,105.5h-1.3v-2c-0.7,1.3-1.9,2-3.5,2c-2.6,0-4.4-1.9-4.4-4.6c0-2.7,1.8-4.6,4.4-4.6
			c1.6,0,2.9,0.7,3.6,2v-5.7h1.3V105.5z M203.8,101c0-2-1.4-3.4-3.3-3.4c-1.9,0-3.3,1.4-3.3,3.4c0,2,1.4,3.4,3.3,3.4
			C202.4,104.3,203.8,102.9,203.8,101z"/>
		<path style="fill:#FFFFFF;" d="M216.9,100.9c0,2.7-1.9,4.6-4.6,4.6s-4.6-1.9-4.6-4.6c0-2.7,1.9-4.6,4.6-4.6
			S216.9,98.2,216.9,100.9z M209,100.9c0,2,1.4,3.4,3.3,3.4s3.3-1.4,3.3-3.4c0-2-1.4-3.4-3.3-3.4S209,98.9,209,100.9z"/>
		<path style="fill:#FFFFFF;" d="M225.5,93.8c0,0.5-0.4,0.9-0.9,0.9s-0.9-0.4-0.9-0.9c0-0.5,0.4-0.9,0.9-0.9S225.5,93.2,225.5,93.8z
			 M224,105.5v-9.1h1.3v9.1H224z"/>
		<path style="fill:#FFFFFF;" d="M233.3,104.9c-0.6,0.4-1.3,0.7-2.1,0.7c-1.3,0-2.3-0.8-2.3-2.6v-5.2h-1.3v-1.1h1.3v-2.4h1.3v2.4
			l2.9,0v1.1h-2.9v5c0,1.1,0.4,1.5,1.2,1.5c0.5,0,1-0.2,1.5-0.5L233.3,104.9z"/>
		<path style="fill:#FFFFFF;" d="M239.7,105.5V92.6h3v12.8H239.7z"/>
		<path style="fill:#FFFFFF;" d="M254.6,100.8c0,2.9-2,4.8-5.1,4.8c-3.1,0-5.1-1.9-5.1-4.8c0-2.9,2-4.8,5.1-4.8
			C252.6,96.1,254.6,97.9,254.6,100.8z M247.4,100.9c0,1.5,0.8,2.4,2.1,2.4c1.2,0,2.1-1,2.1-2.4c0-1.4-0.8-2.4-2.1-2.4
			C248.3,98.4,247.4,99.4,247.4,100.9z"/>
		<path style="fill:#FFFFFF;" d="M265.3,105.5h-3v-1.5c-0.6,1.1-1.7,1.7-3,1.7c-2,0-3.3-1.4-3.3-3.6v-5.9h3v5c0,1.1,0.6,1.8,1.6,1.8
			c1.1,0,1.8-1,1.8-2.2v-4.6h3V105.5z"/>
		<path style="fill:#FFFFFF;" d="M277.1,105.5h-3v-1.2c-0.7,0.9-1.6,1.3-2.8,1.3c-2.6,0-4.4-1.9-4.4-4.8c0-2.9,1.7-4.7,4.3-4.7
			c1.2,0,2.2,0.5,2.9,1.3v-4.7h3V105.5z M274.1,100.9c0-1.4-0.8-2.4-2.1-2.4s-2.1,1-2.1,2.4c0,1.4,0.8,2.4,2.1,2.4
			S274.1,102.3,274.1,100.9z"/>
	</g>
</g>
</svg>
